<?xml version="1.0" encoding="UTF-8"?><svg id="Layer_2" xmlns="http://www.w3.org/2000/svg" viewBox="0 0 336 224"><defs><style>.cls-1{fill:#64cff9;}.cls-2{fill:#027bcd;}.cls-3{fill:#2ac4fa;}.cls-4{fill:#235cc3;}.cls-5{fill:#1da0db;}</style></defs><g id="Layer_1-2"><rect class="cls-5" width="336" height="224"/><polygon class="cls-2" points="186.26 218.24 167.73 218.24 202.57 183.25 221.1 183.25 186.26 218.24"/><polygon class="cls-4" points="208.11 203.77 189.65 203.77 183.61 209.99 202.07 209.99 208.11 203.77"/><polygon class="cls-3" points="189.82 203.77 165.81 203.77 155.62 213.53 179.63 213.53 189.82 203.77"/><polygon class="cls-3" points="202.72 183.25 192.42 183.25 186.53 189.11 196.83 189.11 202.72 183.25"/><polygon class="cls-2" points="238.6 166.33 220.14 166.33 214.1 172.55 232.56 172.55 238.6 166.33"/><polygon class="cls-4" points="214.32 172.55 195.86 172.55 189.82 178.76 208.28 178.76 214.32 172.55"/><polygon class="cls-2" points="262.96 141.17 244.43 141.17 279.27 106.19 297.8 106.19 262.96 141.17"/><polygon class="cls-3" points="318.47 127.97 300.01 127.97 293.98 134.18 312.43 134.18 318.47 127.97"/><polygon class="cls-4" points="300.19 127.97 276.18 127.97 265.98 137.73 290 137.73 300.19 127.97"/><polygon class="cls-1" points="308.98 103.36 267.38 103.36 257.19 113.12 298.79 113.12 308.98 103.36"/><polygon class="cls-2" points="328.88 87.96 295.27 87.96 285.72 97.58 319.33 97.58 328.88 87.96"/><polygon class="cls-1" points="213.22 168.33 42.55 168.33 44.74 166.33 215.4 166.33 213.22 168.33"/><polygon class="cls-1" points="298.87 168.33 239.23 168.33 241.42 166.33 301.06 166.33 298.87 168.33"/><polygon class="cls-1" points="182.14 203.77 165.81 203.77 155.62 213.53 172.41 213.53 182.14 203.77"/><polygon class="cls-3" points="291.71 103.36 267.38 103.36 257.19 113.12 281.52 113.12 291.71 103.36"/></g></svg>