<?xml version="1.0" encoding="UTF-8"?><svg id="Layer_2" xmlns="http://www.w3.org/2000/svg" xmlns:xlink="http://www.w3.org/1999/xlink" viewBox="0 0 336 224"><defs><style>.cls-1{fill:none;}.cls-2{fill:#18a638;}.cls-3{fill:#f5a9c5;}.cls-4{fill:#e81621;}.cls-5{fill:#7ccef4;}.cls-6{fill:#161c1c;}.cls-7{fill:#0192d5;}.cls-8{fill:#91207a;}.cls-9{fill:#fff;}.cls-10{fill:#7b4715;}.cls-11{fill:#eece5b;}.cls-12{fill:#f79806;}.cls-13{fill:#fcc700;}.cls-14{clip-path:url(#clippath);}</style><clipPath id="clippath"><rect class="cls-1" x="0" y="0" width="336" height="224" transform="translate(336 224) rotate(-180)"/></clipPath></defs><g id="Layer_1-2"><rect class="cls-11" x="0" y="0" width="336" height="224" transform="translate(336 224) rotate(-180)"/><g class="cls-14"><path class="cls-6" d="M336,193.6v5.83s-31.86,21.99-78.33,21.99c-46.47,0-96.03-31.29-96.03-31.29l-49.71-31.95S49.76,109.1,9.09,118.43c-40.68,9.33-76.84,43.46-116.01,105.57h12.86s51.48-30.83,51.48-30.83l123.69-66.55,59.38,22.8,99.11,42.33,96.41,1.85Z"/><path class="cls-10" d="M336,188.5v5.1s-32.73,18.06-77.12,18.06-102.05-34.7-102.05-34.7c0,0-89.79-60.03-129.97-58.42,0,0-58.66-7.66-120.93,105.46h10.85s9.01-4.62,9.01-4.62L14.07,136.1l88.96-13.49,95.88,51.08,78.05,19.63,59.04-4.82Z"/><path class="cls-4" d="M336,182.74v5.76s-36.74,15.76-72.5,13.49c-35.76-2.28-59.06-12.23-59.06-12.23,0,0-28.12-11.55-60.46-30.24-32.34-18.68-76.74-37.71-101.85-39.3,0,0-66.29-10.95-125.35,103.78h12.46s39.97-27.42,39.97-27.42l47.99-33.77,64-38.75,21.83-1.45,115.67,49.21,69.7,11.4,47.59-.47Z"/><path class="cls-12" d="M68.24,123.18c30.33,3.24,113.92,46.48,113.92,46.48,0,0,43.89,23.72,88.75,23.72,44.86,0,65.09-10.64,65.09-10.64v-4.36s-7.27-2.15-7.27-2.15l-75.12-4.89-71.11-18.08-74.94-34.23-24.59,4.67L.1,176.03l-59.14,47.97h-11.71S-27.57,119.94,51.64,121.46l16.6,1.72Z"/><path class="cls-13" d="M336,173.83v4.55s-26.9,10.81-68.28,6.83c-41.38-3.98-73.39-20.23-73.39-20.23,0,0-74.99-37.04-104.19-40.64-29.19-3.6-48.08-4.17-76.07,11.76s-51.42,41.37-73.12,87.9h12.79s22.97-27.23,22.97-27.23l52.09-41.15,52.4-31.56,7.33-3.51,17.27-1.15,55.85,14.24,81.26,28.54,70.34,13.74,22.75-2.09Z"/><path class="cls-2" d="M336,170.13v3.7s-11.63,6.16-42.97,4.74c-31.34-1.42-59.46-5.02-108.68-29.2-49.22-24.18-96.71-34.85-133.88-24.05,0,0-69.21,20.92-96.73,98.68h11.05S-.05,189.76-.05,189.76l78.57-66.89,25.66-6.83,53.06,6.32,55.24,21.9,63.88,23.61,46.2-.85,13.44,3.13Z"/><path class="cls-7" d="M336,166.62v3.51s-14.85,3.98-33.53,2.99-56.55-5.83-108.37-29.3c-51.83-23.46-101.9-32.85-137.76-16.21,0,0-61.11,20.85-91.55,96.39h11.05s105.36-99.94,105.36-99.94l12.35-7.12,8.37-1.8,42.72-4.27,45.53,13.08,47.01,22.18,52.76,17.07,35.62,3.22,10.43.19Z"/><path class="cls-8" d="M336,163.59v3.03s-33.58,10.69-104.44-17.82c0,0-67.5-34.7-103.65-34.41s-59.66,9.39-81.56,23.89c-21.9,14.51-52.63,44.31-70.51,85.72h11.45s93.91-99.94,93.91-99.94c0,0,26.81-20.2,56.14-17.92,29.33,2.28,67.7,11.66,67.7,11.66l22.7,13.65,40.18,20.76,52.63,10.52,15.45.85Z"/><path class="cls-5" d="M336,161.13v2.46s-38.82,6.83-93.19-19.15c-54.37-25.98-71.91-34.32-98.43-35.17-26.52-.85-56.85,0-96.82,36.12C7.58,181.51-1.86,203.07-12.71,224H-1.66s30.94-47.04,30.94-47.04l39.17-40.96,9.18-8.38,13.12-9.11,13.41-7.82s36.61-20.86,55.36-14.41c18.75,6.45,56.78,17.44,56.78,17.44l29.6,19.53,36.02,16.31,23.97,7.58,14.46,2.65,15.65,1.33Z"/><path class="cls-9" d="M336,161.13s-38.75,5.31-95-27.4-84.77-31.85-84.77-31.85c0,0-50.02-7.11-80.55,33.28-30.53,40.39-53.43,72.53-53.43,72.53l-13.16,16.32H-1.66s34.75-76.15,101.79-111.5l14.32-10.27s33.75-18.56,56.25-12.3c22.5,6.26,61.87,23.32,61.87,23.32l31.94,21.05,14.66,9.1,18.68,7.11,25.01,6.26,13.14,2.09v2.28Z"/><path class="cls-3" d="M336,157.48s-39.76-2.13-82.54-33.28c-42.79-31.14-58.76-40.96-83.77-40.96-25.01,0-79.85,7.25-151.26,140.76h-9.34S80.8,81.96,166.98,92.63c0,0,30.43.85,79.25,34.98,0,0,43.39,30.57,89.78,31.24v-1.37Z"/><path class="cls-6" d="M331.84,0h-11.73s-29.71,18.23-50.92,13.77C247.99,9.31,242.42,0,242.42,0h7.33s35.87,17.15,35.87,17.15h25.21S331.84,0,331.84,0Z"/><path class="cls-10" d="M346.4,0h-14.56s-22.48,15.14-47.71,15.56C284.13,15.56,260.99,15.52,249.75,0h5.42s18.23,12.2,18.23,12.2l16.42,10.25,48.96-11.23L346.4,0Z"/><path class="cls-4" d="M361.94,0h-15.54s-30.3,21.41-57.96,19.44C266.51,17.87,255.17,0,255.17,0h4.26s28.05,23.54,28.05,23.54l28.47,6.74,46-20.48V0Z"/><path class="cls-12" d="M378.36,0h-16.42s-30.78,25.1-64.29,24.32C297.65,24.32,272.96,24.74,259.43,0h3.71s10.77,10.71,10.77,10.71l12.68,15.97,5.26,5.49,40.47-1.15,22.92-8.26,26.97-17.18L378.36,0Z"/><path class="cls-13" d="M394.26,0h-15.9s-31.96,30.23-69.48,30.71C308.88,30.71,276.43,33.06,263.14,0h3.37s21.65,31.31,21.65,31.31l17.39,8.8,42.12-3.86,22.67-9.22,19.2-14.41L394.26,0Z"/><path class="cls-2" d="M408.95,0h-14.69s-34.38,37.51-82.5,37.46c0,0-23.99-.91-35.62-18.81C276.14,18.65,269.3,8.95,266.51,0h3.47s10.6,19.65,10.6,19.65l7.38,15.04s23.21,18.99,23.26,17.84,7.92-2.89,7.92-2.89l27.36-3.01,44.17-22.24,19.11-15.07,2.83-8.08L408.95,0Z"/><path class="cls-7" d="M422.53,0h-13.58s-37.97,47.53-89.13,44.99C319.82,44.99,281.56,47.05,269.98,0h3.93s5.74,6.48,5.74,6.48l7.23,26.52,3.23,7.95,32.49,23.39,28.44-3.98,50.72-22.5,24.63-34.46L422.53,0Z"/><path class="cls-8" d="M433.67,0h-11.14s-36.35,51.87-93.04,53.07c0,0-26.78,1.73-42.41-18.73C287.08,34.35,276.8,23.45,273.91,0h3.79s9.92,37.1,9.92,37.1l3.86,10.67,26.48,16.88h29.32s44.37-14.71,44.37-14.71l33.36-24.88L433.67,0Z"/><path class="cls-5" d="M281.68,0h-3.97s1.56,24.46,8.73,35.35c0,0,12.87,25.2,42.67,26.16C358.91,62.47,407.87,43.39,433.67,0h8.4s-2.14,8.47-2.14,8.47l-35.38,41.71-19.94,11.37-15.64,8.16-41.05,6.03-23.85-12.06-9.5-8.67-4.82-5.98-2.88-16.03L281.68,0Z"/><path class="cls-9" d="M285.81,0h-4.14s-.55,23.9,5.73,38.57c6.23,14.57,19.91,29.05,43.27,31.26,0,0,27.28,3.59,60.69-16.88C429.85,29.36,442.07,0,442.07,0h6.31s-2.93,8.47-2.93,8.47l-18.03,26.57-30.64,26.95-27.41,16.27-26.39,5.42-27.85-3.98-16.86-14.65-9.48-20.45-.3-2.57-1.41-7.7.03-24.63-.1-8.96L285.81,0Z"/><path class="cls-3" d="M290.66,0s-3.53,16.52-2.21,41.3,21.11,37.97,21.11,37.97c0,0,8.8,8.14,26.09,8.14,0,0,27.27,2.47,61.42-22.13C431.23,40.69,444.32,15.22,449.89,0h-1.5s-10.85,26.77-39.73,49.19c-28.88,22.42-49.99,26.4-49.99,26.4,0,0-32.98,11.39-55.26-9.95C281.12,44.31,285.37,17.75,285.81,0h4.85Z"/></g></g></svg>