<?xml version="1.0" encoding="UTF-8"?><svg id="Layer_2" xmlns="http://www.w3.org/2000/svg" xmlns:xlink="http://www.w3.org/1999/xlink" viewBox="0 0 336 224"><defs><style>.cls-1{fill:none;}.cls-2{fill:#18a638;}.cls-3{fill:#f5a9c5;}.cls-4{fill:#e81621;}.cls-5{fill:#7ccef4;}.cls-6{fill:#161c1c;}.cls-7{fill:#0192d5;}.cls-8{fill:#91207a;}.cls-9{fill:#fff;}.cls-10{fill:#7b4715;}.cls-11{fill:#eece5b;}.cls-12{fill:#f79806;}.cls-13{fill:#fcc700;}.cls-14{clip-path:url(#clippath);}</style><clipPath id="clippath"><rect class="cls-1" width="336" height="224"/></clipPath></defs><g id="Layer_1-2"><rect class="cls-11" width="336" height="224"/><g class="cls-14"><path class="cls-6" d="M0,193.6v5.83s31.86,21.99,78.33,21.99,96.03-31.29,96.03-31.29l49.71-31.95s62.17-49.09,102.85-39.76c40.68,9.33,76.84,43.46,116.01,105.57h-12.86l-51.48-30.83-123.69-66.55-59.38,22.8-99.11,42.33L0,193.6Z"/><path class="cls-10" d="M0,188.5v5.1s32.73,18.06,77.12,18.06,102.05-34.7,102.05-34.7c0,0,89.79-60.03,129.97-58.42,0,0,58.66-7.66,120.93,105.46h-10.85l-9.01-4.62-88.29-83.29-88.96-13.49-95.88,51.08-78.05,19.63L0,188.5Z"/><path class="cls-4" d="M0,182.74v5.76s36.74,15.76,72.5,13.49c35.76-2.28,59.06-12.23,59.06-12.23,0,0,28.12-11.55,60.46-30.24,32.34-18.68,76.74-37.71,101.85-39.3,0,0,66.29-10.95,125.35,103.78h-12.46l-39.97-27.42-47.99-33.77-64-38.75-21.83-1.45-115.67,49.21-69.7,11.4L0,182.74Z"/><path class="cls-12" d="M267.76,123.18c-30.33,3.24-113.92,46.48-113.92,46.48,0,0-43.89,23.72-88.75,23.72S0,182.74,0,182.74v-4.36l7.27-2.15,75.12-4.89,71.11-18.08,74.94-34.23,24.59,4.67,82.87,52.33,59.14,47.97h11.71s-43.18-104.06-122.4-102.54l-16.6,1.72Z"/><path class="cls-13" d="M0,173.83v4.55s26.9,10.81,68.28,6.83c41.38-3.98,73.39-20.23,73.39-20.23,0,0,74.99-37.04,104.19-40.64,29.19-3.6,48.08-4.17,76.07,11.76,27.99,15.93,51.42,41.37,73.12,87.9h-12.79l-22.97-27.23-52.09-41.15-52.4-31.56-7.33-3.51-17.27-1.15-55.85,14.24-81.26,28.54-70.34,13.74L0,173.83Z"/><path class="cls-2" d="M0,170.13v3.7s11.63,6.16,42.97,4.74c31.34-1.42,59.46-5.02,108.68-29.2,49.22-24.18,96.71-34.85,133.88-24.05,0,0,69.21,20.92,96.73,98.68h-11.05l-35.15-34.24-78.57-66.89-25.66-6.83-53.06,6.32-55.24,21.9-63.88,23.61-46.2-.85L0,170.13Z"/><path class="cls-7" d="M0,166.62v3.51s14.85,3.98,33.53,2.99,56.55-5.83,108.37-29.3c51.83-23.46,101.9-32.85,137.76-16.21,0,0,61.11,20.85,91.55,96.39h-11.05l-105.36-99.94-12.35-7.12-8.37-1.8-42.72-4.27-45.53,13.08-47.01,22.18-52.76,17.07-35.62,3.22L0,166.62Z"/><path class="cls-8" d="M0,163.59v3.03s33.58,10.69,104.44-17.82c0,0,67.5-34.7,103.65-34.41,36.16.28,59.66,9.39,81.56,23.89,21.9,14.51,52.63,44.31,70.51,85.72h-11.45l-93.91-99.94s-26.81-20.2-56.14-17.92c-29.33,2.28-67.7,11.66-67.7,11.66l-22.7,13.65-40.18,20.76-52.63,10.52L0,163.59Z"/><path class="cls-5" d="M0,161.13v2.46s38.82,6.83,93.19-19.15c54.37-25.98,71.91-34.32,98.43-35.17,26.52-.85,56.85,0,96.82,36.12,39.97,36.12,49.42,57.68,60.26,78.61h-11.05l-30.94-47.04-39.17-40.96-9.18-8.38-13.12-9.11-13.41-7.82s-36.61-20.86-55.36-14.41-56.78,17.44-56.78,17.44l-29.6,19.53-36.02,16.31-23.97,7.58-14.46,2.65L0,161.13Z"/><path class="cls-9" d="M0,161.13s38.75,5.31,95-27.4c56.25-32.71,84.77-31.85,84.77-31.85,0,0,50.02-7.11,80.55,33.28,30.53,40.39,53.43,72.53,53.43,72.53l13.16,16.32h10.75s-34.75-76.15-101.79-111.5l-14.32-10.27s-33.75-18.56-56.25-12.3-61.87,23.32-61.87,23.32l-31.94,21.05-14.66,9.1-18.68,7.11-25.01,6.26L0,158.85v2.28Z"/><path class="cls-3" d="M0,157.48s39.76-2.13,82.54-33.28c42.79-31.14,58.76-40.96,83.77-40.96s79.85,7.25,151.26,140.76h9.34S255.2,81.96,169.02,92.63c0,0-30.43.85-79.25,34.98C89.78,127.61,46.39,158.19,0,158.85v-1.37Z"/><path class="cls-6" d="M4.16,0h11.73s29.71,18.23,50.92,13.77C88.01,9.31,93.58,0,93.58,0h-7.33l-35.87,17.15h-25.21L4.16,0Z"/><path class="cls-10" d="M-10.4,0H4.16s22.48,15.14,47.71,15.56C51.87,15.56,75.01,15.52,86.25,0h-5.42l-18.23,12.2-16.42,10.25L-2.78,11.23-10.4,0Z"/><path class="cls-4" d="M-25.94,0h15.54s30.3,21.41,57.96,19.44C69.49,17.87,80.83,0,80.83,0h-4.26l-28.05,23.54-28.47,6.74L-25.94,9.79V0Z"/><path class="cls-12" d="M-42.36,0h16.42S4.84,25.1,38.35,24.32C38.35,24.32,63.04,24.74,76.57,0h-3.71l-10.77,10.71-12.68,15.97-5.26,5.49-40.47-1.15-22.92-8.26L-46.22,5.57-42.36,0Z"/><path class="cls-13" d="M-58.26,0h15.9S-10.4,30.23,27.12,30.71C27.12,30.71,59.57,33.06,72.86,0h-3.37l-21.65,31.31-17.39,8.8-42.12-3.86-22.67-9.22-19.2-14.41L-58.26,0Z"/><path class="cls-2" d="M-72.95,0h14.69S-23.89,37.51,24.24,37.46c0,0,23.99-.91,35.62-18.81C59.86,18.65,66.7,8.95,69.49,0h-3.47l-10.6,19.65-7.38,15.04s-23.21,18.99-23.26,17.84-7.92-2.89-7.92-2.89l-27.36-3.01-44.17-22.24-19.11-15.07-2.83-8.08L-72.95,0Z"/><path class="cls-7" d="M-86.53,0h13.58S-34.98,47.53,16.18,44.99C16.18,44.99,54.44,47.05,66.02,0h-3.93l-5.74,6.48-7.23,26.52-3.23,7.95-32.49,23.39-28.44-3.98-50.72-22.5L-90.39,3.4-86.53,0Z"/><path class="cls-8" d="M-97.67,0h11.14S-50.18,51.87,6.5,53.07c0,0,26.78,1.73,42.41-18.73C48.92,34.35,59.2,23.45,62.09,0h-3.79l-9.92,37.1-3.86,10.67-26.48,16.88H-11.28l-44.37-14.71-33.36-24.88L-97.67,0Z"/><path class="cls-5" d="M54.32,0h3.97s-1.56,24.46-8.73,35.35c0,0-12.87,25.2-42.67,26.16S-71.87,43.39-97.67,0h-8.4l2.14,8.47,35.38,41.71,19.94,11.37,15.64,8.16,41.05,6.03,23.85-12.06,9.5-8.67,4.82-5.98,2.88-16.03L54.32,0Z"/><path class="cls-9" d="M50.19,0h4.14s.55,23.9-5.73,38.57-19.91,29.05-43.27,31.26c0,0-27.28,3.59-60.69-16.88C-93.85,29.36-106.07,0-106.07,0h-6.31l2.93,8.47,18.03,26.57,30.64,26.95,27.41,16.27,26.39,5.42,27.85-3.98,16.86-14.65,9.48-20.45.3-2.57,1.41-7.7-.03-24.63.1-8.96L50.19,0Z"/><path class="cls-3" d="M45.34,0s3.53,16.52,2.21,41.3c-1.32,24.77-21.11,37.97-21.11,37.97,0,0-8.8,8.14-26.09,8.14,0,0-27.27,2.47-61.42-22.13C-95.23,40.69-108.32,15.22-113.89,0h1.5s10.85,26.77,39.73,49.19c28.88,22.42,49.99,26.4,49.99,26.4,0,0,32.98,11.39,55.26-9.95S50.63,17.75,50.19,0h-4.85Z"/></g></g></svg>