<?xml version="1.0" encoding="UTF-8"?>
<svg id="Layer_1" xmlns="http://www.w3.org/2000/svg" version="1.1" viewBox="0 0 336 224">
  <!-- Generator: Adobe Illustrator 29.6.1, SVG Export Plug-In . SVG Version: 2.1.1 Build 9)  -->
  <defs>
    <style>
      .st0 {
        fill: #4aceff;
      }

      .st1 {
        fill: #1d3e83;
      }

      .st2 {
        fill: silver;
      }

      .st3 {
        fill: red;
      }
    </style>
  </defs>
  <rect class="st1" x="0" width="336" height="224" transform="translate(335.9 224) rotate(-180)"/>
  <path class="st2" d="M-.1,224h336s0-52.7,0-52.7c0,0-34-33.9-75.8-33.9-82.7,0-76.3,86.5-134.6,86.5S12,187.5,12,143.1V21.1s-1.7-12.4,14.7-12.4c16.4,0,294.2,0,294.2,0,0,0,15.1,1.5,15.1,15.1V0S-.1,0-.1,0v224Z"/>
  <path class="st3" d="M284.6,151.3s-26.5-13.9-56.2-4.9c-29.7,9-58.3,66.9-76.1,76.2,0,0,37.5-1,52.3-23,0,0,30.3-48.3,79.9-48.3Z"/>
  <path class="st0" d="M191.8,165.1c16.1-22.2,44.9-27.4,44.9-27.4,0,0-32.2.6-50.5,25.4-18.4,24.8-42.1,52-54.8,52,0,0,20.7,4.9,60.4-50Z"/>
</svg>