<?xml version="1.0" encoding="UTF-8"?><svg id="Layer_2" xmlns="http://www.w3.org/2000/svg" viewBox="0 0 336 224"><defs><style>.cls-1{fill:#0090d5;}.cls-2{fill:#79bfd8;}.cls-3{fill:#0154a3;}.cls-4{fill:#002161;}.cls-5{fill:#25b1da;}</style></defs><g id="Layer_1-2"><rect class="cls-3" width="336" height="224"/><polygon class="cls-1" points="268.61 172.49 218.99 172.49 233.28 158.94 282.9 158.94 268.61 172.49"/><polygon class="cls-5" points="265.11 158.94 233.27 158.94 240.75 151.19 272.58 151.19 265.11 158.94"/><polygon class="cls-2" points="295.98 151.19 272.45 151.19 265.11 158.94 288.63 158.94 295.98 151.19"/><polygon class="cls-1" points="314.91 136.91 284.43 136.91 275.93 145.19 306.41 145.19 314.91 136.91"/><polygon class="cls-4" points="300.21 130 279.71 130 272.58 136.91 293.09 136.91 300.21 130"/><polygon class="cls-4" points="230.13 172.49 289.17 172.49 279.71 182.17 220.68 182.17 230.13 172.49"/><polygon class="cls-5" points="310.36 172.49 288.87 172.49 282.9 178.77 304.39 178.77 310.36 172.49"/><polygon class="cls-1" points="46.71 175.96 28.18 175.96 63.02 140.98 81.55 140.98 46.71 175.96"/><polygon class="cls-4" points="68.14 161.5 49.68 161.5 43.64 167.71 62.1 167.71 68.14 161.5"/><polygon class="cls-5" points="63.17 140.98 52.87 140.98 46.98 146.84 57.28 146.84 63.17 140.98"/><polygon class="cls-1" points="99.05 124.06 80.59 124.06 74.55 130.27 93.01 130.27 99.05 124.06"/><polygon class="cls-4" points="74.77 130.27 56.31 130.27 50.27 136.49 68.73 136.49 74.77 130.27"/><polygon class="cls-5" points="213.22 194.85 42.55 194.85 44.74 192.86 215.4 192.86 213.22 194.85"/><polygon class="cls-5" points="272.71 194.85 213.07 194.85 215.26 192.86 274.9 192.86 272.71 194.85"/><polygon class="cls-5" points="50.21 161.52 42.53 161.52 32.8 171.28 40.02 171.28 50.21 161.52"/><polygon class="cls-2" points="42.53 161.52 26.2 161.52 16.01 171.28 32.8 171.28 42.53 161.52"/></g></svg>