<?xml version="1.0" encoding="UTF-8"?><svg id="Layer_2" xmlns="http://www.w3.org/2000/svg" xmlns:xlink="http://www.w3.org/1999/xlink" viewBox="0 0 336.28 224.19"><defs><style>.cls-1{fill:url(#linear-gradient-3);}.cls-2{fill:url(#linear-gradient-2);}.cls-3{fill:url(#linear-gradient);}.cls-4{fill:#003473;}.cls-5{fill:#fff;}</style><linearGradient id="linear-gradient" x1=".23" y1="177.46" x2="336.28" y2="177.46" gradientTransform="translate(336.28) rotate(-180) scale(1 -1)" gradientUnits="userSpaceOnUse"><stop offset="0" stop-color="#de0277" stop-opacity="0"/><stop offset=".03" stop-color="#de0177" stop-opacity=".12"/><stop offset=".07" stop-color="#df0177" stop-opacity=".31"/><stop offset=".12" stop-color="#df0177" stop-opacity=".47"/><stop offset=".18" stop-color="#e00177" stop-opacity=".62"/><stop offset=".24" stop-color="#e00177" stop-opacity=".74"/><stop offset=".3" stop-color="#e10177" stop-opacity=".83"/><stop offset=".38" stop-color="#e10177" stop-opacity=".91"/><stop offset=".48" stop-color="#e10177" stop-opacity=".96"/><stop offset=".62" stop-color="#e10177" stop-opacity=".99"/><stop offset="1" stop-color="#e20177"/></linearGradient><linearGradient id="linear-gradient-2" x1="-.05" y1="187.68" x2="122.3" y2="187.68" gradientTransform="translate(213.93 379.11) scale(1 -1)" gradientUnits="userSpaceOnUse"><stop offset="0" stop-color="#fff" stop-opacity="0"/><stop offset="0" stop-color="#fff" stop-opacity=".04"/><stop offset=".05" stop-color="#fff" stop-opacity=".22"/><stop offset=".09" stop-color="#fff" stop-opacity=".39"/><stop offset=".14" stop-color="#fff" stop-opacity=".53"/><stop offset=".2" stop-color="#fff" stop-opacity=".66"/><stop offset=".25" stop-color="#fff" stop-opacity=".77"/><stop offset=".32" stop-color="#fff" stop-opacity=".85"/><stop offset=".4" stop-color="#fff" stop-opacity=".92"/><stop offset=".49" stop-color="#fff" stop-opacity=".97"/><stop offset=".63" stop-color="#fff" stop-opacity=".99"/><stop offset="1" stop-color="#fff"/></linearGradient><linearGradient id="linear-gradient-3" x1="0" y1="192.66" x2="122.35" y2="192.66" gradientTransform="translate(213.93 379.11) scale(1 -1)" xlink:href="#linear-gradient"/></defs><g id="Layer_1-2"><rect class="cls-5" x=".28" y="0" width="336" height="224" transform="translate(336.56 224) rotate(-180)"/><rect class="cls-4" x="0" y="198.2" width="335.99" height="25.99" transform="translate(335.99 422.39) rotate(-180)"/><path class="cls-4" d="M336.05,35.39h-107.21S100.66,189.55,100.66,189.55c0,0-8.61,10.07-35.44,11.48l270.83,6.78V35.39Z"/><path class="cls-3" d="M336.05,145.32v13.08h-99.72s-23.86-1.84-44.89,19.2-43.76,33.88-80.19,33.88S0,211.48,0,211.48l.05-10.94,100.75-4.78,20.05-5.74,22.59-16.94,22.02-17.51,34.16-9.32,23.15-2.82,113.28,1.88Z"/><path class="cls-5" d="M336.05,141.55h-101.23s-60.33-1.93-86.87,24.85c-20.99,21.18-42.92,29.36-63.67,29.36H.04s0,4.78,0,4.78h84.19s34.64,2.85,66.07-31.22c0,0,21.65-24,84.33-24h101.42s0-3.76,0-3.76Z"/><rect class="cls-2" x="213.88" y="189.55" width="122.35" height="3.74"/><rect class="cls-1" x="213.93" y="183.34" width="122.35" height="6.21"/></g></svg>