<?xml version="1.0" encoding="UTF-8"?><svg id="Layer_1" xmlns="http://www.w3.org/2000/svg" viewBox="0 0 336 224"><defs><style>.cls-1{fill:#fff954;}</style></defs><rect class="cls-1" width="336" height="224"/><path d="M319.26,80.81c-2.2-.84-4.72-5.32-5.64-6.6-.81-.92-1.73-1.73-2.75-2.41l-4.67-3.45c-1.41-3.19-3.53-6.03-6.19-8.29-4.37-2.74-8.96-5.1-13.73-7.07,0,0,1.65,5.71,3.14,9.69.4,1.58,1.26,3,2.47,4.08,0,0-2.57-.77-12.52.63-5.71.72-11.36,1.88-16.9,3.46-3.99,1.03-10.06,3.08-10.06,3.08l9.86.63s-11.55,3.05-17.64,5.21c-6.1,2.16-11.3,4.57-11.3,4.57l13.96-2.04c2.37-1.4,4.83-2.62,7.38-3.66,3.18-1.24,8.53-2.77,10.46-3.29s7.81-1.53,7.81-1.53l-10.48-.87c2.97-1.23,6.06-2.18,9.21-2.83,4.63-.84,9.32-1.33,14.03-1.46,3.33-.02,6.65.14,9.96.46-1.22-1.62-2.21-3.39-2.95-5.27-.14-1.1-.06-2.23.24-3.3,1.73.07,3.33.98,4.28,2.43,1.27,1.66,1.8,3.77,1.46,5.83-.61,4.49-5.83,5.12-5.83,5.12-5.37-.06-10.7.95-15.68,2.97-8.08,3.42-10.03,7.24-10.86,12.28-.89,5.42,3.45,11.71,8.41,15.46,4.32,2.94,9.17,5.01,14.28,6.11,2.35.54,4.73.95,7.13,1.25,0,0-12.11-3.42-17.47-7.55-5.75-4.39-8.85-9.93-8.02-14.64,1.08-5.84,5.65-10.4,11.48-11.49,6.34-1.27,12.52.05,19.12,1.31s25,6.8,25,6.8c-.16.85.05,1.74.58,2.43.38.56.85,1.06,1.4,1.46,0,0-1.32,2.84-11.58,1.94-6.19-.52-12.65-3.42-20.35-2.36-7.7,1.06-8.46,5.5-7.63,8.95.94,2.68,2.47,5.11,4.47,7.12,0,0-3.7-8.35.73-11.49s14.38-1.06,20.71-.64,12.92,1.67,15.95-1.99c1.57-1.58,2.67-3.58,3.16-5.76,0,0-12.22-4.47-14.44-5.32ZM299.91,72.79l11.35,2.43,1.23,3.67-12.58-6.1Z"/></svg>