<?xml version="1.0" encoding="UTF-8"?><svg id="Layer_2" xmlns="http://www.w3.org/2000/svg" viewBox="0 0 336.33 224.04"><defs><style>.cls-1{fill:#e00918;}.cls-2{fill:#14b0e6;}.cls-3{fill:#0a74bb;}.cls-4{fill:#c71581;}.cls-5{fill:#dbd9d3;}.cls-6{fill:#f8c814;}.cls-7{fill:#76b62d;}.cls-8{fill:#f2920c;}.cls-9{fill:#635c56;}.cls-10{fill:#858382;}</style></defs><g id="Layer_1-2"><rect class="cls-9" x="150.52" y=".04" width="185.8" height="224"/><path class="cls-5" d="M160.31,223.99c81.19-36.71,78.6-114.63,78.6-114.63C230.73,16.04,158.82.04,158.82.04L0,0v223.99h160.31Z"/><path class="cls-7" d="M223.25,41.7c14.62,22.19,21.53,49.24,20.1,75.7-1.27,23.34-9.67,45.93-22.22,65.51,12.26-19.71,20.33-42.27,21.28-65.55.9-20.05-3.27-40.26-11.7-58.46-2.6-5.57-5.56-11.05-9.06-16,0,0,1.61-1.19,1.61-1.19h0Z"/><circle class="cls-7" cx="221.97" cy="41.64" r="2.45"/><path class="cls-6" d="M202.82,32.93c26.16,28.56,38.56,70.6,26.95,108.14-3.72,12.36-9.45,24.05-16.55,34.78,6.96-10.82,12.52-22.57,16.07-34.91,10.11-34.21.23-71.84-21.65-99.38-1.97-2.5-4.04-4.97-6.23-7.21,0,0,1.41-1.42,1.41-1.42h0Z"/><circle class="cls-6" cx="201.64" cy="32.98" r="2.45"/><path class="cls-10" d="M181.47,211.29c36.85-25.81,63.13-69.08,55.93-115.12-2.48-17.49-9.19-34.2-17.97-49.5,8.94,15.19,15.86,31.89,18.53,49.41,6.39,38.23-10.25,75.01-37.26,101.57-5.65,5.57-11.58,10.77-18.14,15.31,0,0-1.09-1.68-1.09-1.68h0Z"/><circle class="cls-10" cx="180.47" cy="213.07" r="2.45"/><circle class="cls-8" cx="205.17" cy="51.28" r="2.45"/><path class="cls-1" d="M209,171.38c11.06-16.15,17.57-35.72,18.67-55.28,1.4-25.45-6.17-51.51-21.98-71.64,15.47,18.77,23.53,43.18,23.75,67.41.06,15.8-3.35,31.6-9.75,46.04-2.34,5.28-4.96,10.36-8.28,15.25,0,0-2.42-1.78-2.42-1.78h0Z"/><path class="cls-8" d="M205.99,50.71c24.27,34.91,24.99,84.33.22,119.13-7.9,11.59-18.07,21.58-29.7,29.35,11.54-7.9,21.56-18,29.29-29.63,24.08-34.71,22.92-83.5-1.46-117.72,0,0,1.65-1.13,1.65-1.13h0Z"/><path class="cls-4" d="M191.35,41.13c14.95,15.71,25.49,36.12,27.6,57.84,5.11,44.88-19.61,87.15-61.49,104.22-19.93,8.4-42.62,10.13-63.39,3.9,20.78,6.06,43.39,4.17,63.2-4.36,47.06-19.61,70.85-70.47,57.07-119.3-4.73-15.3-13.28-29.43-24.42-40.91,0,0,1.44-1.39,1.44-1.39h0Z"/><path class="cls-2" d="M189.13,47.47c31.88,34.2,34.09,87.8,4.22,124.01-9.46,11.78-21.73,21.25-35.43,27.67l-.84-1.82c13.5-6.14,25.66-15.31,35.1-26.8,30.03-35.61,28.19-88.81-3.06-123.07h0Z"/><path class="cls-3" d="M242.4,68.8c13.8,41.29,5.14,89.03-22.22,122.86,26.64-33.99,34.64-81.47,20.32-122.22,0,0,1.9-.64,1.9-.64h0Z"/><circle class="cls-4" cx="190.49" cy="41.54" r="2.45"/><circle class="cls-2" cx="156.37" cy="198.72" r="2.45"/><circle class="cls-1" cx="209.5" cy="173.21" r="2.45"/><circle class="cls-3" cx="240.84" cy="67.52" r="2.45"/></g></svg>