<?xml version="1.0" encoding="UTF-8"?><svg id="Layer_2" xmlns="http://www.w3.org/2000/svg" viewBox="0 0 336.33 224.04"><defs><style>.cls-1{fill:#e00918;}.cls-2{fill:#14b0e6;}.cls-3{fill:#0a74bb;}.cls-4{fill:#c71581;}.cls-5{fill:#dbd9d3;}.cls-6{fill:#f8c814;}.cls-7{fill:#76b62d;}.cls-8{fill:#f2920c;}.cls-9{fill:#635c56;}.cls-10{fill:#858382;}</style></defs><g id="Layer_1-2"><rect class="cls-9" x="150.52" y=".04" width="185.8" height="224"/><path class="cls-5" d="M160.31,223.99c81.19-36.71,78.6-114.63,78.6-114.63C230.73,16.04,158.82.04,158.82.04L0,0v223.99s160.31,0,160.31,0Z"/><path class="cls-7" d="M223.65,41.4c14.6,22.29,21.46,49.48,19.93,76.01-1.34,23.36-9.83,45.95-22.45,65.49,12.19-19.74,20.17-42.3,21.05-65.56.83-20-3.4-40.15-11.87-58.27-2.58-5.49-5.57-10.99-9.07-15.89,0,0,2.41-1.79,2.41-1.79h0Z"/><circle class="cls-7" cx="221.97" cy="41.64" r="2.45"/><path class="cls-6" d="M203.17,32.58c26.15,28.72,38.48,70.92,26.71,108.53-3.77,12.36-9.53,24.03-16.67,34.74,6.93-10.84,12.44-22.6,15.95-34.95,9.98-34.17.02-71.65-21.9-99.06-1.96-2.48-4.05-4.95-6.21-7.14l2.12-2.12h0Z"/><path class="cls-6" d="M204.09,32.98c0,1.35-1.1,2.45-2.45,2.45s-2.45-1.1-2.45-2.45c0-1.35,1.1-2.45,2.45-2.45s2.45,1.1,2.45,2.45Z"/><path class="cls-10" d="M181.2,210.87c36.83-25.67,63.11-68.72,56.06-114.68-2.43-17.49-9.09-34.2-17.84-49.52,9.99,16.84,17.45,35.64,19.45,55.26,4.62,40.29-16.52,78.57-46.6,104.12-3.04,2.57-6.09,5.05-9.45,7.34l-1.63-2.52h0Z"/><path class="cls-10" d="M182.91,213.07c0-1.35-1.1-2.45-2.45-2.45s-2.45,1.1-2.45,2.45,1.1,2.45,2.45,2.45,2.45-1.1,2.45-2.45Z"/><path class="cls-8" d="M207.62,51.28c0,1.35-1.1,2.45-2.45,2.45s-2.45-1.1-2.45-2.45,1.1-2.45,2.45-2.45,2.45,1.1,2.45,2.45Z"/><path class="cls-1" d="M209,171.38c11.06-16.15,17.57-35.72,18.67-55.28,1.4-25.45-6.17-51.51-21.98-71.64,15.47,18.77,23.53,43.18,23.75,67.41.06,15.8-3.35,31.6-9.75,46.04-2.34,5.28-4.96,10.36-8.28,15.25,0,0-2.42-1.78-2.42-1.78h0Z"/><path class="cls-8" d="M206.41,50.43c24.24,35.08,24.85,84.66-.09,119.48-7.94,11.58-18.15,21.55-29.81,29.28,11.52-7.94,21.5-18.06,29.18-29.7,23.92-34.69,22.64-83.33-1.77-117.37,0,0,2.48-1.69,2.48-1.69h0Z"/><path class="cls-4" d="M191.71,40.78c14.99,15.81,25.53,36.33,27.61,58.15,5.04,44.99-19.8,87.35-61.82,104.38-19.96,8.37-42.67,10.06-63.44,3.79,20.79,6.01,43.37,4.08,63.15-4.48,46.89-19.64,70.57-70.4,56.73-119.07-4.74-15.22-13.28-29.28-24.39-40.68,0,0,2.16-2.08,2.16-2.08h0Z"/><path class="cls-2" d="M189.13,47.47c32.04,34.18,34.34,87.89,4.51,124.25-9.47,11.85-21.76,21.4-35.51,27.89l-1.26-2.72c13.45-6.07,25.58-15.17,35.02-26.58,30.07-35.45,28.32-88.55-2.77-122.83h0Z"/><path class="cls-3" d="M242.88,68.64c13.67,41.43,4.85,89.23-22.69,123.02,26.46-34.03,34.3-81.44,19.85-122.06,0,0,2.84-.96,2.84-.96h0Z"/><circle class="cls-4" cx="190.49" cy="41.54" r="2.45"/><path class="cls-2" d="M158.82,198.72c0,1.35-1.1,2.45-2.45,2.45s-2.45-1.1-2.45-2.45,1.1-2.45,2.45-2.45,2.45,1.1,2.45,2.45Z"/><circle class="cls-1" cx="209.5" cy="173.21" r="2.45"/><path class="cls-3" d="M243.29,67.52c0,1.35-1.1,2.45-2.45,2.45s-2.45-1.1-2.45-2.45c0-1.35,1.1-2.45,2.45-2.45s2.45,1.1,2.45,2.45Z"/></g></svg>