<?xml version="1.0" encoding="UTF-8"?><svg id="Layer_2" xmlns="http://www.w3.org/2000/svg" viewBox="0 0 336.33 224.04"><defs><style>.cls-1{fill:#e00918;}.cls-2{fill:#14b0e6;}.cls-3{fill:#0a74bb;}.cls-4{fill:#c71581;}.cls-5{fill:#dbd9d3;}.cls-6{fill:#f8c814;}.cls-7{fill:#76b62d;}.cls-8{fill:#f2920c;}.cls-9{fill:#635c56;}.cls-10{fill:#858382;}</style></defs><g id="Layer_1-2"><rect class="cls-9" x="0" y=".04" width="185.8" height="224" transform="translate(185.8 224.08) rotate(-180)"/><path class="cls-5" d="M176.01,223.99c-81.19-36.71-78.6-114.63-78.6-114.63C105.6,16.04,177.51.04,177.51.04l158.82-.04v223.99s-160.31,0-160.31,0Z"/><path class="cls-7" d="M114.69,42.89c-14.66,21.64-21.85,48.38-20.77,74.46.96,23.28,9.02,45.85,21.28,65.55-12.55-19.57-20.95-42.16-22.22-65.51-1.18-20.25,2.77-40.72,11.05-59.23,2.58-5.7,5.45-11.23,9.05-16.47,0,0,1.61,1.19,1.61,1.19h0Z"/><circle class="cls-7" cx="114.35" cy="41.64" r="2.45"/><path class="cls-6" d="M134.92,34.35c-26.19,27.93-38.89,69.3-27.88,106.59,3.55,12.35,9.1,24.09,16.07,34.91-7.1-10.73-12.82-22.42-16.55-34.78-10.66-34.39-1.1-72.57,20.65-100.67,1.98-2.58,4.01-5.08,6.3-7.47,0,0,1.41,1.42,1.41,1.42h0Z"/><circle class="cls-6" cx="134.68" cy="32.98" r="2.45"/><path class="cls-10" d="M153.76,212.97c-36.97-26.45-63.15-70.45-55.4-116.88,2.67-17.52,9.59-34.22,18.53-49.41-8.78,15.29-15.5,32-17.97,49.5-6.6,42.11,14.8,81.69,46.63,108.08,3,2.48,6.1,4.91,9.3,7.04,0,0-1.09,1.68-1.09,1.68h0Z"/><circle class="cls-10" cx="155.86" cy="213.07" r="2.45"/><circle class="cls-8" cx="131.16" cy="51.28" r="2.45"/><path class="cls-1" d="M124.91,173.16c-11.86-18.11-18.04-39.7-18.03-61.29.22-24.23,8.28-48.64,23.76-67.41-14.97,19.02-22.46,43.33-22.16,67.41.06,1.39.21,5,.28,6.35.13,1.36.53,4.92.67,6.31,2.4,16.61,8.37,33.04,17.91,46.85,0,0-2.42,1.78-2.42,1.78h0Z"/><path class="cls-8" d="M131.98,51.84c-24.38,34.22-25.54,83.01-1.46,117.72,7.72,11.63,17.75,21.72,29.29,29.63-11.63-7.77-21.8-17.76-29.7-29.35-24.77-34.8-24.04-84.22.22-119.13,0,0,1.65,1.13,1.65,1.13h0Z"/><path class="cls-4" d="M146.41,42.52c-14.8,15.32-25.31,35.29-27.55,56.62-5.41,44.4,18.85,86.38,60.2,103.59,19.81,8.53,42.42,10.42,63.2,4.36-20.77,6.23-43.46,4.5-63.39-3.9-47.72-19.46-72-70.79-58.44-120.22,4.71-15.64,13.27-30.04,24.54-41.84,0,0,1.44,1.39,1.44,1.39h0Z"/><path class="cls-2" d="M147.2,47.47c-31.25,34.27-33.09,87.46-3.06,123.07,9.44,11.49,21.6,20.66,35.1,26.8,0,0-.84,1.82-.84,1.82-13.69-6.42-25.96-15.89-35.43-27.67-29.87-36.21-27.65-89.83,4.22-124.01h0Z"/><path class="cls-3" d="M95.82,69.44c-14.32,40.76-6.31,88.23,20.32,122.22-27.36-33.83-36.02-81.57-22.22-122.86,0,0,1.9.64,1.9.64h0Z"/><circle class="cls-4" cx="145.84" cy="41.54" r="2.45"/><circle class="cls-2" cx="179.95" cy="198.72" r="2.45"/><circle class="cls-1" cx="126.82" cy="173.21" r="2.45"/><circle class="cls-3" cx="95.48" cy="67.52" r="2.45"/></g></svg>