<?xml version="1.0" encoding="UTF-8"?><svg id="Layer_2" xmlns="http://www.w3.org/2000/svg" viewBox="0 0 336.33 224.04"><defs><style>.cls-1{fill:#e00918;}.cls-2{fill:#14b0e6;}.cls-3{fill:#ffcd07;}.cls-4{fill:#0a74bb;}.cls-5{fill:#c71581;}.cls-6{fill:#f7ea20;}.cls-7{fill:#7b3b85;}.cls-8{fill:#fff;}.cls-9{fill:#76b62d;}.cls-10{fill:#f2920c;}</style></defs><g id="Layer_1-2"><rect class="cls-3" x="0" y=".04" width="185.8" height="224" transform="translate(185.8 224.08) rotate(-180)"/><path class="cls-6" d="M176.01,223.99c-81.19-36.71-78.6-114.63-78.6-114.63C105.6,16.04,177.51.04,177.51.04l158.82-.04v223.99s-160.31,0-160.31,0Z"/><path class="cls-9" d="M115.09,43.19c-13.83,20.25-21.04,45.04-21.03,69.53-.07,24.84,8.14,49.16,21.14,70.19-12.63-19.54-21.11-42.14-22.45-65.49-1.43-23.43,3.95-47.19,15.02-67.88,1.5-2.78,3.06-5.46,4.91-8.13,0,0,2.41,1.79,2.41,1.79h0Z"/><circle class="cls-9" cx="114.35" cy="41.64" r="2.45"/><path class="cls-7" d="M135.27,34.7c-17.34,18.54-28.98,42.81-31.53,68.17-2.66,25.68,5.48,51.47,19.36,72.98-7.14-10.71-12.9-22.38-16.67-34.74-10.79-34.43-1.31-72.76,20.4-100.99,1.98-2.6,4-5.1,6.31-7.54,0,0,2.12,2.12,2.12,2.12h0Z"/><circle class="cls-7" cx="134.68" cy="32.98" r="2.45"/><path class="cls-8" d="M153.49,213.39c-37-26.6-63.16-70.8-55.26-117.32,2.72-17.53,9.69-34.23,18.67-49.39-8.29,14.47-14.61,30.19-17.42,46.61-7.63,43.32,13.51,83.41,46.38,110.61,2.99,2.46,6.1,4.88,9.27,6.98,0,0-1.63,2.52-1.63,2.52h0Z"/><circle class="cls-8" cx="155.86" cy="213.07" r="2.45"/><circle class="cls-10" cx="131.16" cy="51.28" r="2.45"/><path class="cls-1" d="M124.91,173.16c-11.86-18.11-18.04-39.7-18.03-61.29.22-24.23,8.28-48.64,23.76-67.41-14.97,19.02-22.46,43.33-22.16,67.41.06,1.39.21,5,.28,6.35.13,1.36.53,4.92.67,6.31,2.4,16.61,8.37,33.04,17.91,46.85,0,0-2.42,1.78-2.42,1.78h0Z"/><path class="cls-10" d="M132.39,52.12c-24.41,34.04-25.68,82.68-1.77,117.37,7.68,11.64,17.67,21.76,29.18,29.7-11.66-7.73-21.86-17.7-29.81-29.28-24.94-34.82-24.33-84.4-.09-119.48,0,0,2.48,1.69,2.48,1.69h0Z"/><path class="cls-5" d="M146.77,42.87c-14.76,15.22-25.27,35.08-27.54,56.31-5.48,44.29,18.67,86.18,59.87,103.44,19.78,8.56,42.36,10.49,63.15,4.48-20.77,6.27-43.48,4.58-63.44-3.79-47.88-19.42-72.29-70.87-58.78-120.45,4.7-15.72,13.26-30.19,24.57-42.07,0,0,2.16,2.08,2.16,2.08h0Z"/><path class="cls-2" d="M147.2,47.47c-31.1,34.29-32.84,87.37-2.77,122.83,9.44,11.42,21.57,20.51,35.02,26.58l-1.26,2.72c-13.74-6.49-26.04-16.04-35.51-27.89-29.83-36.36-27.52-90.08,4.51-124.25h0Z"/><path class="cls-4" d="M96.29,69.6c-10.72,30.37-9.28,64.69,3.51,94.24,4.26,9.89,9.77,19.25,16.34,27.83-6.76-8.42-12.51-17.67-17.03-27.52-13.65-29.65-15.83-64.42-5.67-95.5,0,0,2.84.96,2.84.96h0Z"/><circle class="cls-5" cx="145.84" cy="41.54" r="2.45"/><circle class="cls-2" cx="179.95" cy="198.72" r="2.45"/><circle class="cls-1" cx="126.82" cy="173.21" r="2.45"/><circle class="cls-4" cx="95.48" cy="67.52" r="2.45"/></g></svg>