<?xml version="1.0" encoding="UTF-8"?><svg id="Layer_2" xmlns="http://www.w3.org/2000/svg" viewBox="0 0 336 224.01"><defs><style>.cls-1{fill:#007040;}.cls-2{fill:#e40000;}.cls-3{fill:#f9dd00;}.cls-4{fill:#c8e600;}.cls-5{fill:#00ab49;}.cls-6{fill:#005849;}.cls-7{fill:#008834;}</style></defs><g id="Layer_1-2"><rect class="cls-2" x="0" y="0" width="336" height="224"/><polygon class="cls-7" points="0 184.61 184.61 0 336 0 336 224.01 0 224.01 0 184.61"/><polygon class="cls-1" points="186.26 218.24 167.73 218.24 202.57 183.26 221.1 183.26 186.26 218.24"/><polygon class="cls-6" points="208.11 203.78 189.65 203.78 183.61 209.99 202.07 209.99 208.11 203.78"/><polygon class="cls-3" points="189.82 203.78 165.81 203.78 155.62 213.54 179.63 213.54 189.82 203.78"/><polygon class="cls-4" points="202.72 183.26 192.42 183.26 186.53 189.12 196.83 189.12 202.72 183.26"/><polygon class="cls-5" points="238.6 166.34 220.14 166.34 214.1 172.55 232.56 172.55 238.6 166.34"/><polygon class="cls-6" points="214.32 172.55 195.86 172.55 189.82 178.77 208.28 178.77 214.32 172.55"/><polygon class="cls-1" points="262.96 141.18 244.43 141.18 279.27 106.19 297.8 106.19 262.96 141.18"/><polygon class="cls-4" points="298.33 127.97 279.87 127.97 273.83 134.19 292.29 134.19 298.33 127.97"/><polygon class="cls-6" points="280.05 127.97 256.04 127.97 245.84 137.74 269.85 137.74 280.05 127.97"/><polygon class="cls-4" points="308.52 103.36 266.93 103.36 256.73 113.12 298.33 113.12 308.52 103.36"/><polygon class="cls-1" points="328.88 87.97 295.27 87.97 285.72 97.58 319.33 97.58 328.88 87.97"/><polygon class="cls-6" points="310.84 81.56 290.4 81.56 284.84 87.97 305.28 87.97 310.84 81.56"/><polygon class="cls-4" points="213.22 168.33 42.55 168.33 44.74 166.34 215.4 166.34 213.22 168.33"/><polygon class="cls-4" points="298.87 168.33 239.23 168.33 241.42 166.34 301.06 166.34 298.87 168.33"/><polygon class="cls-4" points="182.14 203.78 165.81 203.78 155.62 213.54 172.41 213.54 182.14 203.78"/></g></svg>