<?xml version="1.0" encoding="UTF-8"?><svg id="Layer_2" xmlns="http://www.w3.org/2000/svg" viewBox="0 0 336 224"><defs><style>.cls-1{fill:#64cff9;}.cls-2{fill:#027bcd;}.cls-3{fill:#2ac4fa;}.cls-4{fill:#235cc3;}.cls-5{fill:#1da0db;}</style></defs><g id="Layer_2-2"><rect class="cls-5" x="0" y="0" width="336" height="224" transform="translate(336 224) rotate(-180)"/><polygon class="cls-1" points="84.48 216.24 255.14 216.24 257.33 218.24 86.66 218.24 84.48 216.24"/><polygon class="cls-1" points="78.77 216.24 138.41 216.24 140.6 218.24 80.96 218.24 78.77 216.24"/><polygon class="cls-2" points="224.08 183.25 242.61 183.25 277.45 218.24 258.92 218.24 224.08 183.25"/><polygon class="cls-4" points="243.11 209.99 261.57 209.99 255.53 203.77 237.07 203.77 243.11 209.99"/><polygon class="cls-3" points="265.55 213.53 289.56 213.53 279.37 203.77 255.36 203.77 265.55 213.53"/><polygon class="cls-3" points="248.35 189.11 258.65 189.11 252.76 183.25 242.46 183.25 248.35 189.11"/><polygon class="cls-2" points="212.62 172.55 231.08 172.55 225.04 166.33 206.58 166.33 212.62 172.55"/><polygon class="cls-4" points="236.9 178.76 255.36 178.76 249.32 172.55 230.86 172.55 236.9 178.76"/><polygon class="cls-1" points="272.77 213.53 289.56 213.53 279.37 203.77 263.04 203.77 272.77 213.53"/><polygon class="cls-2" points="60.19 183.26 98.04 183.26 118.03 202.77 80.43 202.77 60.19 183.26"/><polygon class="cls-3" points="50.03 208.98 69.48 208.98 62.45 202.77 43.99 202.77 50.03 208.98"/><polygon class="cls-4" points="72.46 212.53 106.68 212.53 96.48 202.77 62.27 202.77 72.46 212.53"/><polygon class="cls-1" points="63.67 190.19 105.27 190.19 95.08 180.43 53.48 180.43 63.67 190.19"/><polygon class="cls-2" points="43.13 174.65 76.74 174.65 67.19 165.03 33.58 165.03 43.13 174.65"/><polygon class="cls-3" points="80.94 190.19 105.27 190.19 95.08 180.43 70.75 180.43 80.94 190.19"/></g></svg>