<?xml version="1.0" encoding="UTF-8"?><svg id="Layer_2" xmlns="http://www.w3.org/2000/svg" viewBox="0 0 336 224"><defs><style>.cls-1{fill:#64cff9;}.cls-2{fill:#027bcd;}.cls-3{fill:#2ac4fa;}.cls-4{fill:#235cc3;}.cls-5{fill:#1da0db;}</style></defs><g id="Layer_2-2"><rect class="cls-5" width="336" height="224"/><polygon class="cls-1" points="249.34 218.24 78.67 218.24 80.86 216.24 251.52 216.24 249.34 218.24"/><polygon class="cls-1" points="255.04 218.24 195.4 218.24 197.59 216.24 257.23 216.24 255.04 218.24"/><polygon class="cls-2" points="77.08 218.24 58.55 218.24 93.39 183.25 111.92 183.25 77.08 218.24"/><polygon class="cls-4" points="98.93 203.77 80.47 203.77 74.43 209.99 92.89 209.99 98.93 203.77"/><polygon class="cls-3" points="80.64 203.77 56.63 203.77 46.44 213.53 70.45 213.53 80.64 203.77"/><polygon class="cls-3" points="93.54 183.25 83.24 183.25 77.35 189.11 87.65 189.11 93.54 183.25"/><polygon class="cls-2" points="129.42 166.33 110.96 166.33 104.92 172.55 123.38 172.55 129.42 166.33"/><polygon class="cls-4" points="105.14 172.55 86.68 172.55 80.64 178.76 99.1 178.76 105.14 172.55"/><polygon class="cls-1" points="72.96 203.77 56.63 203.77 46.44 213.53 63.23 213.53 72.96 203.77"/><polygon class="cls-2" points="255.57 202.77 217.97 202.77 237.96 183.26 275.81 183.26 255.57 202.77"/><polygon class="cls-3" points="292.01 202.77 273.55 202.77 266.52 208.98 285.97 208.98 292.01 202.77"/><polygon class="cls-4" points="273.73 202.77 239.52 202.77 229.32 212.53 263.54 212.53 273.73 202.77"/><polygon class="cls-1" points="282.52 180.43 240.92 180.43 230.73 190.19 272.33 190.19 282.52 180.43"/><polygon class="cls-2" points="302.42 165.03 268.81 165.03 259.26 174.65 292.87 174.65 302.42 165.03"/><polygon class="cls-3" points="265.25 180.43 240.92 180.43 230.73 190.19 255.06 190.19 265.25 180.43"/></g></svg>