<?xml version="1.0" encoding="UTF-8"?><svg id="Layer_2" xmlns="http://www.w3.org/2000/svg" viewBox="0 0 336 224.17"><defs><style>.cls-1{fill:#c8e600;}.cls-2{fill:#00ab49;}.cls-3{fill:#009c6d;}.cls-4{fill:#008734;}.cls-5{fill:#76b729;}</style></defs><g id="Layer_2-2"><rect class="cls-5" y=".16" width="336" height="224"/><polygon class="cls-4" points="336 .16 336 224.17 23.21 224.17 247.37 0 336 .16"/><polygon class="cls-2" points="256.54 202.29 238.01 202.29 272.85 167.31 291.38 167.31 256.54 202.29"/><polygon class="cls-3" points="278.39 187.83 259.93 187.83 253.89 194.04 272.35 194.04 278.39 187.83"/><polygon class="cls-1" points="260.1 187.83 236.09 187.83 225.9 197.59 249.91 197.59 260.1 187.83"/><polygon class="cls-1" points="273 167.31 262.7 167.31 256.81 173.17 267.11 173.17 273 167.31"/><polygon class="cls-2" points="308.88 150.39 290.42 150.39 284.38 156.6 302.84 156.6 308.88 150.39"/><polygon class="cls-3" points="284.6 156.6 266.14 156.6 260.1 162.82 278.56 162.82 284.6 156.6"/><polygon class="cls-2" points="79.24 216.16 60.71 216.16 95.55 181.17 114.08 181.17 79.24 216.16"/><polygon class="cls-1" points="133.18 202.95 114.72 202.95 108.68 209.17 127.14 209.17 133.18 202.95"/><polygon class="cls-3" points="115.52 202.95 72.32 202.95 62.12 212.72 105.32 212.72 115.52 202.95"/><polygon class="cls-1" points="124.8 178.34 83.21 178.34 73.01 188.1 114.61 188.1 124.8 178.34"/><polygon class="cls-2" points="145.16 162.95 111.55 162.95 102 172.56 135.61 172.56 145.16 162.95"/><polygon class="cls-3" points="127.12 156.54 106.68 156.54 101.12 162.95 121.56 162.95 127.12 156.54"/></g></svg>