<?xml version="1.0" encoding="UTF-8"?><svg id="Layer_2" xmlns="http://www.w3.org/2000/svg" viewBox="0 0 336 224.17"><defs><style>.cls-1{fill:#c8e600;}.cls-2{fill:#00ab49;}.cls-3{fill:#009c6d;}.cls-4{fill:#008734;}.cls-5{fill:#76b729;}</style></defs><g id="Layer_2-2"><rect class="cls-5" x="0" y=".16" width="336" height="224" transform="translate(336 224.31) rotate(-180)"/><polygon class="cls-4" points="88.63 0 312.79 224.17 0 224.17 0 .16 88.63 0"/><polygon class="cls-2" points="44.62 167.31 63.15 167.31 97.99 202.29 79.46 202.29 44.62 167.31"/><polygon class="cls-3" points="63.65 194.04 82.11 194.04 76.07 187.83 57.61 187.83 63.65 194.04"/><polygon class="cls-1" points="86.09 197.59 110.1 197.59 99.91 187.83 75.9 187.83 86.09 197.59"/><polygon class="cls-1" points="68.89 173.17 79.19 173.17 73.3 167.31 63 167.31 68.89 173.17"/><polygon class="cls-2" points="33.16 156.6 51.62 156.6 45.58 150.39 27.12 150.39 33.16 156.6"/><polygon class="cls-3" points="57.44 162.82 75.9 162.82 69.86 156.6 51.4 156.6 57.44 162.82"/><polygon class="cls-2" points="221.92 181.17 240.45 181.17 275.29 216.16 256.76 216.16 221.92 181.17"/><polygon class="cls-1" points="208.86 209.17 227.32 209.17 221.28 202.95 202.82 202.95 208.86 209.17"/><polygon class="cls-3" points="230.68 212.72 273.88 212.72 263.68 202.95 220.48 202.95 230.68 212.72"/><polygon class="cls-1" points="221.39 188.1 262.99 188.1 252.79 178.34 211.2 178.34 221.39 188.1"/><polygon class="cls-2" points="200.39 172.56 234 172.56 224.45 162.95 190.84 162.95 200.39 172.56"/><polygon class="cls-3" points="214.44 162.95 234.88 162.95 229.32 156.54 208.88 156.54 214.44 162.95"/></g></svg>