<?xml version="1.0" encoding="UTF-8"?><svg id="Layer_2" xmlns="http://www.w3.org/2000/svg" viewBox="0 0 336 224.01"><defs><style>.cls-1{fill:#c8e600;}.cls-2{fill:#00ab49;}.cls-3{fill:#009c6d;}.cls-4{fill:#008734;}.cls-5{fill:#76b729;}</style></defs><g id="Layer_2-2"><g id="Layer_1-2"><rect class="cls-5" x="0" y="0" width="336" height="224" transform="translate(336 224) rotate(-180)"/><polygon class="cls-4" points="336 224.01 0 224.01 0 0 151.39 0 336 184.61 336 224.01"/><polygon class="cls-2" points="114.9 183.26 133.43 183.26 168.27 218.24 149.74 218.24 114.9 183.26"/><polygon class="cls-3" points="133.93 209.99 152.39 209.99 146.35 203.78 127.89 203.78 133.93 209.99"/><polygon class="cls-1" points="156.37 213.54 180.38 213.54 170.19 203.78 146.18 203.78 156.37 213.54"/><polygon class="cls-1" points="139.17 189.12 149.47 189.12 143.58 183.26 133.28 183.26 139.17 189.12"/><polygon class="cls-2" points="103.44 172.55 121.9 172.55 115.86 166.34 97.4 166.34 103.44 172.55"/><polygon class="cls-3" points="127.72 178.77 146.18 178.77 140.14 172.55 121.68 172.55 127.72 178.77"/><polygon class="cls-2" points="38.2 106.19 56.73 106.19 91.57 141.18 73.04 141.18 38.2 106.19"/><polygon class="cls-1" points="43.71 134.19 62.17 134.19 56.13 127.97 37.67 127.97 43.71 134.19"/><polygon class="cls-3" points="66.15 137.74 90.16 137.74 79.96 127.97 55.95 127.97 66.15 137.74"/><polygon class="cls-1" points="37.67 113.12 79.27 113.12 69.07 103.36 27.48 103.36 37.67 113.12"/><polygon class="cls-2" points="16.67 97.58 50.28 97.58 40.73 87.97 7.12 87.97 16.67 97.58"/><polygon class="cls-3" points="30.72 87.97 51.16 87.97 45.6 81.56 25.16 81.56 30.72 87.97"/><polygon class="cls-1" points="120.6 166.34 291.26 166.34 293.45 168.33 122.78 168.33 120.6 166.34"/><polygon class="cls-1" points="34.94 166.34 94.58 166.34 96.77 168.33 37.13 168.33 34.94 166.34"/></g></g></svg>