<?xml version="1.0" encoding="UTF-8"?><svg id="Layer_2" xmlns="http://www.w3.org/2000/svg" viewBox="0 0 336 224"><defs><style>.cls-1{fill:#c8e600;}.cls-2{fill:#00ab49;}.cls-3{fill:#abcb0f;}.cls-4{fill:#a9cb13;}.cls-5{fill:#036626;}.cls-6{fill:#76b729;}</style></defs><g id="Layer_2-2"><rect class="cls-6" x="0" y="0" width="336" height="224" transform="translate(336 224) rotate(-180)"/><polygon class="cls-2" points="185.19 191.22 227.16 191.22 239.25 201.65 197.28 201.65 185.19 191.22"/><polygon class="cls-1" points="172.48 181.37 216.92 181.37 227.36 191.22 182.91 191.22 172.48 181.37"/><polygon class="cls-4" points="172.1 191.22 199.92 191.22 189.62 181.32 161.79 181.32 172.1 191.22"/><polygon class="cls-5" points="226.02 210.27 173.44 210.27 165.02 201.65 217.61 201.65 226.02 210.27"/><polygon class="cls-3" points="148.02 209.28 172.48 209.28 165.68 202.14 141.23 202.14 148.02 209.28"/><polygon class="cls-2" points="28.7 51.2 54.99 51.2 89.96 80.82 63.68 80.82 28.7 51.2"/><polygon class="cls-5" points="38.38 76.54 68.53 76.54 63.47 71.33 33.32 71.33 38.38 76.54"/><polygon class="cls-1" points="71.86 79.51 89.1 79.51 79.02 71.33 61.78 71.33 71.86 79.51"/><polygon class="cls-4" points="88.71 79.51 120.02 79.51 109.93 71.33 79.02 71.33 88.71 79.51"/><polygon class="cls-2" points="16.34 41.23 48.1 41.23 40 34.28 8.24 34.28 16.34 41.23"/><polygon class="cls-5" points="55.77 47.88 80.76 47.88 72.71 41.23 48.03 41.23 55.77 47.88"/><polygon class="cls-1" points="63.43 58.22 80.76 58.22 73.48 52.33 56.16 52.33 63.43 58.22"/><polygon class="cls-2" points="154.07 175.56 178.43 175.56 173.57 170.67 149.21 170.67 154.07 175.56"/><polygon class="cls-5" points="170.43 170.67 188.04 170.67 183.25 165.15 165.65 165.15 170.43 170.67"/><polygon class="cls-3" points="8.01 195.44 178.66 195.44 180.85 197.43 10.18 197.43 8.01 195.44"/></g></svg>