<?xml version="1.0" encoding="UTF-8"?><svg id="Layer_2" xmlns="http://www.w3.org/2000/svg" viewBox="0 0 336 224"><defs><style>.cls-1{fill:#c8e600;}.cls-2{fill:#00ab49;}.cls-3{fill:#abcb0f;}.cls-4{fill:#a9cb13;}.cls-5{fill:#036626;}.cls-6{fill:#76b729;}</style></defs><g id="Layer_2-2"><rect class="cls-6" width="336" height="224"/><polygon class="cls-2" points="138.72 201.65 96.75 201.65 108.84 191.22 150.81 191.22 138.72 201.65"/><polygon class="cls-1" points="153.09 191.22 108.64 191.22 119.08 181.37 163.52 181.37 153.09 191.22"/><polygon class="cls-4" points="174.21 181.32 146.38 181.32 136.08 191.22 163.9 191.22 174.21 181.32"/><polygon class="cls-5" points="118.39 201.65 170.98 201.65 162.56 210.27 109.98 210.27 118.39 201.65"/><polygon class="cls-3" points="194.77 202.14 170.32 202.14 163.52 209.28 187.98 209.28 194.77 202.14"/><polygon class="cls-2" points="272.32 80.82 246.04 80.82 281.01 51.2 307.3 51.2 272.32 80.82"/><polygon class="cls-5" points="302.68 71.33 272.53 71.33 267.47 76.54 297.62 76.54 302.68 71.33"/><polygon class="cls-1" points="274.22 71.33 256.98 71.33 246.9 79.51 264.14 79.51 274.22 71.33"/><polygon class="cls-4" points="256.98 71.33 226.07 71.33 215.98 79.51 247.29 79.51 256.98 71.33"/><polygon class="cls-2" points="327.76 34.28 296 34.28 287.9 41.23 319.66 41.23 327.76 34.28"/><polygon class="cls-5" points="287.97 41.23 263.29 41.23 255.24 47.88 280.23 47.88 287.97 41.23"/><polygon class="cls-1" points="279.84 52.33 262.52 52.33 255.24 58.22 272.57 58.22 279.84 52.33"/><polygon class="cls-2" points="186.79 170.67 162.43 170.67 157.57 175.56 181.93 175.56 186.79 170.67"/><polygon class="cls-5" points="170.35 165.15 152.75 165.15 147.96 170.67 165.57 170.67 170.35 165.15"/><polygon class="cls-3" points="325.82 197.43 155.15 197.43 157.34 195.44 327.99 195.44 325.82 197.43"/></g></svg>