<?xml version="1.0" encoding="UTF-8"?><svg id="Layer_2" xmlns="http://www.w3.org/2000/svg" xmlns:xlink="http://www.w3.org/1999/xlink" viewBox="0 0 336.02 224"><defs><style>.cls-1{fill:none;}.cls-2{fill:#3d98d4;}.cls-3{fill:#2b2b2b;}.cls-4{fill:#4eb05a;}.cls-5{fill:#f29ec4;}.cls-6{fill:#f59f60;}.cls-7{fill:#c8c9d2;}.cls-8{fill:#593d91;}.cls-9{fill:#ffdf1a;}.cls-10{fill:#e83f3b;}.cls-11{clip-path:url(#clippath);}.cls-12{fill:#9963a6;}</style><clipPath id="clippath"><path class="cls-1" d="M74.95,93.33h-7s40.77-40.42,40.77-40.42h7s-40.77,40.42-40.77,40.42ZM101.22,52.9h-7s-40.77,40.42-40.77,40.42h7s40.77-40.42,40.77-40.42ZM145.5,52.9h-7s-40.77,40.42-40.77,40.42h7s40.77-40.42,40.77-40.42ZM131,52.9h-7s-40.77,40.42-40.77,40.42h7s40.77-40.42,40.77-40.42ZM174.63,52.9h-7s-40.77,40.42-40.77,40.42h7s40.77-40.42,40.77-40.42ZM160.13,52.9h-7s-40.77,40.42-40.77,40.42h7s40.77-40.42,40.77-40.42Z"/></clipPath></defs><g id="Layer_1-2"><rect class="cls-3" x="0" y="0" width="336" height="224" transform="translate(336 224) rotate(-180)"/><polygon class="cls-7" points="0 177.88 0 0 177.88 0 0 177.88"/><path class="cls-5" d="M19.89,157.66h120.15c29.74,0,58.26-11.82,79.28-32.87L336.02,7.96v7.12l-115.18,115.33c-21.02,21.04-49.54,32.87-79.28,32.87H14.3l5.59-5.61Z"/><path class="cls-10" d="M14.3,163.27h128.23c29.13,0,57.06-11.6,77.63-32.23L336.02,14.78v7.12l-114.35,114.75c-20.56,20.63-48.49,32.23-77.63,32.23H8.71l5.59-5.61Z"/><path class="cls-6" d="M8.71,168.87l134.24.03c29.83,0,58.43-11.87,79.47-33.02l113.61-114.18v7.12l-112.35,112.92c-20.88,20.98-49.26,32.78-78.86,32.77l-141.69-.03,5.59-5.61Z"/><path class="cls-9" d="M3.12,174.48h141.28c29.6-.02,57.98-11.79,78.89-32.74l112.72-112.92v7.12l-111.22,111.41c-20.91,20.95-49.29,32.72-78.89,32.73H0s0-2.47,0-2.47l3.12-3.12Z"/><path class="cls-4" d="M0,180.08l145.62.04c29.76,0,58.29-11.82,79.32-32.87l111.07-111.22v7.12l-109.57,109.71c-21.03,21.05-49.56,32.88-79.32,32.87l-147.13-.04v-5.61Z"/><path class="cls-2" d="M0,185.74l147.38.02c29.61,0,58-11.77,78.92-32.72l109.72-109.89v7.12l-108.21,108.38c-20.92,20.95-49.31,32.72-78.92,32.72L0,191.35v-5.61Z"/><path class="cls-8" d="M0,191.37l148.64.03c29.76,0,58.31-11.82,79.33-32.89l108.03-108.22v7.12l-106.52,106.71c-21.03,21.06-49.57,32.9-79.33,32.89l-150.12-.03L0,191.37Z"/><polygon class="cls-5" points="336 73.12 336 224 185.12 224 336 73.12"/><polygon class="cls-10" points="336 90.63 336 224 202.63 224 336 90.63"/><polygon class="cls-6" points="336 110.41 336 224 222.41 224 336 110.41"/><polygon class="cls-9" points="336 129.41 336 224 241.41 224 336 129.41"/><polygon class="cls-4" points="336 148.56 336 224 260.56 224 336 148.56"/><polygon class="cls-2" points="336 167.2 336 224 279.2 224 336 167.2"/><polygon class="cls-8" points="336 186.28 336 224 298.28 224 336 186.28"/><polygon class="cls-12" points="336 203.64 336 224 315.64 224 336 203.64"/><path class="cls-12" d="M0,196.97l148.64.03c29.76,0,57.99-10.7,79.33-31.35l108.03-108.22v7.12l-106.52,106.71c-21.03,21.06-49.57,31.36-79.33,31.35l-150.12-.03L0,196.97Z"/><g class="cls-11"><rect class="cls-10" x="58.35" y="57.67" width="121.98" height="5.09"/><rect class="cls-6" x="49.11" y="62.76" width="121.98" height="5.09"/><rect class="cls-9" x="44.09" y="67.85" width="121.98" height="5.09"/><rect class="cls-4" x="48.12" y="72.9" width="121.98" height="5.09"/><rect class="cls-2" x="43.54" y="77.96" width="121.98" height="5.09"/><rect class="cls-8" x="27.58" y="83.04" width="121.98" height="5.09"/><rect class="cls-12" x="30.05" y="88.13" width="121.98" height="5.09"/><rect class="cls-5" x="64.68" y="52.8" width="121.98" height="5.09"/></g></g></svg>