<?xml version="1.0" encoding="UTF-8"?><svg id="Layer_2" xmlns="http://www.w3.org/2000/svg" xmlns:xlink="http://www.w3.org/1999/xlink" viewBox="0 0 336.02 224"><defs><style>.cls-1{fill:none;}.cls-2{fill:#3d98d4;}.cls-3{fill:#2b2b2b;}.cls-4{fill:#4eb05a;}.cls-5{fill:#f29ec4;}.cls-6{fill:#f59f60;}.cls-7{clip-path:url(#clippath-1);}.cls-8{fill:#c8c9d2;}.cls-9{fill:#593d91;}.cls-10{fill:#ffdf1a;}.cls-11{fill:#e83f3b;}.cls-12{fill:#9963a6;}</style><clipPath id="clippath-1"><path class="cls-1" d="M261.07,93.33h7s-40.77-40.42-40.77-40.42h-7s40.77,40.42,40.77,40.42ZM234.79,52.9h7s40.77,40.42,40.77,40.42h-7s-40.77-40.42-40.77-40.42ZM190.52,52.9h7s40.77,40.42,40.77,40.42h-7s-40.77-40.42-40.77-40.42ZM205.02,52.9h7s40.77,40.42,40.77,40.42h-7s-40.77-40.42-40.77-40.42ZM161.39,52.9h7s40.77,40.42,40.77,40.42h-7s-40.77-40.42-40.77-40.42ZM175.88,52.9h7s40.77,40.42,40.77,40.42h-7s-40.77-40.42-40.77-40.42Z"/></clipPath></defs><g id="Layer_1-2"><rect class="cls-3" x=".02" y="0" width="336" height="224"/><polygon class="cls-8" points="336.02 177.88 336.02 0 158.14 0 336.02 177.88"/><path class="cls-5" d="M316.12,157.66h-120.15c-29.74,0-58.26-11.82-79.28-32.87L0,7.96v7.12l115.18,115.33c21.02,21.04,49.54,32.87,79.28,32.87h127.25l-5.59-5.61Z"/><path class="cls-11" d="M321.72,163.27h-128.23c-29.13,0-57.06-11.6-77.63-32.23L0,14.78v7.12l114.35,114.75c20.56,20.63,48.49,32.23,77.63,32.23h135.33l-5.59-5.61Z"/><path class="cls-6" d="M327.31,168.87l-134.24.03c-29.83,0-58.43-11.87-79.47-33.02L0,21.7v7.12l112.35,112.92c20.88,20.98,49.26,32.78,78.86,32.77l141.69-.03-5.59-5.61Z"/><path class="cls-10" d="M332.9,174.48h-141.28c-29.6-.02-57.98-11.79-78.89-32.74L0,28.82v7.12l111.22,111.41c20.91,20.95,49.29,32.72,78.89,32.73h145.91s0-2.47,0-2.47l-3.12-3.12Z"/><path class="cls-4" d="M336.02,180.08l-145.62.04c-29.76,0-58.29-11.82-79.32-32.87L0,36.03v7.12l109.57,109.71c21.03,21.05,49.56,32.88,79.32,32.87l147.13-.04v-5.61Z"/><path class="cls-2" d="M336.02,185.74l-147.38.02c-29.61,0-58-11.77-78.92-32.72L0,43.15v7.12l108.21,108.38c20.92,20.95,49.31,32.72,78.92,32.72l148.89-.02v-5.61Z"/><path class="cls-9" d="M336.02,191.37l-148.64.03c-29.76,0-58.31-11.82-79.33-32.89L.02,50.29v7.12l106.52,106.71c21.03,21.06,49.57,32.9,79.33,32.89l150.12-.03.03-5.61Z"/><polygon class="cls-5" points=".02 73.12 .02 224 150.9 224 .02 73.12"/><polygon class="cls-11" points=".02 90.63 .02 224 133.39 224 .02 90.63"/><polygon class="cls-6" points=".02 110.41 .02 224 113.61 224 .02 110.41"/><polygon class="cls-10" points=".02 129.41 .02 224 94.61 224 .02 129.41"/><polygon class="cls-4" points=".02 148.56 .02 224 75.46 224 .02 148.56"/><polygon class="cls-2" points=".02 167.2 .02 224 56.81 224 .02 167.2"/><polygon class="cls-9" points=".02 186.28 .02 224 37.74 224 .02 186.28"/><polygon class="cls-12" points=".02 203.64 .02 224 20.37 224 .02 203.64"/><path class="cls-12" d="M336.02,196.97l-148.64.03c-29.76,0-57.99-10.7-79.33-31.35L.02,57.43v7.12l106.52,106.71c21.03,21.06,49.57,31.36,79.33,31.35l150.12-.03.03-5.61Z"/><g class="cls-7"><rect class="cls-11" x="155.69" y="57.67" width="121.98" height="5.09"/><rect class="cls-6" x="164.94" y="62.76" width="121.98" height="5.09"/><rect class="cls-10" x="169.95" y="67.85" width="121.98" height="5.09"/><rect class="cls-4" x="165.92" y="72.9" width="121.98" height="5.09"/><rect class="cls-2" x="170.5" y="77.96" width="121.98" height="5.09"/><rect class="cls-9" x="186.46" y="83.04" width="121.98" height="5.09"/><rect class="cls-12" x="183.99" y="88.13" width="121.98" height="5.09"/><rect class="cls-5" x="149.36" y="52.8" width="121.98" height="5.09"/></g></g></svg>