<?xml version="1.0" encoding="UTF-8"?><svg id="Layer_2" xmlns="http://www.w3.org/2000/svg" viewBox="0 0 336 224"><defs><style>.cls-1{fill:#fc0;}.cls-2{fill:#0067b2;}.cls-3{fill:#ef7d00;}.cls-4{fill:#83d0f5;}.cls-5{fill:#0055a4;}.cls-6{fill:#0086ce;}.cls-7{fill:#fcbd00;}.cls-8{fill:#f7a600;}.cls-9{fill:#1da0db;}.cls-10{fill:#009fe3;}.cls-11{fill:#6dc9f3;}</style></defs><g id="Layer_2-2"><polygon class="cls-9" points="0 224 0 0 269.61 0 45.61 224 0 224"/><polygon class="cls-5" points="269.61 0 336 0 336 224 45.61 224 269.61 0"/><polygon class="cls-2" points="125.22 189.22 140.69 189.22 198.25 131.92 182.78 131.92 125.22 189.22"/><polygon class="cls-6" points="94.84 183.31 102.4 183.31 154.01 131.93 146.45 131.93 94.84 183.31"/><polygon class="cls-1" points="91.83 196.79 99.39 196.79 156.95 139.49 149.39 139.49 91.83 196.79"/><polygon class="cls-3" points="102.69 196.79 110.25 196.79 167.81 139.49 160.26 139.49 102.69 196.79"/><polygon class="cls-3" points="109.43 220.34 116.99 220.34 174.55 163.04 167 163.04 109.43 220.34"/><polygon class="cls-8" points="130.67 176.46 133.47 176.46 166.55 143.53 163.76 143.53 130.67 176.46"/><polygon class="cls-3" points="102.11 210.5 103.84 210.5 161.4 153.2 159.67 153.2 102.11 210.5"/><polygon class="cls-1" points="107.69 209.65 114.71 209.65 124.16 200.24 117.14 200.24 107.69 209.65"/><polygon class="cls-1" points="130.83 193.15 132.57 193.15 176.82 149.1 175.08 149.1 130.83 193.15"/><polygon class="cls-1" points="106.43 169.26 108.96 169.26 142.5 135.87 139.97 135.87 106.43 169.26"/><polygon class="cls-3" points="111.84 157.61 114.37 157.61 136.55 135.53 134.02 135.53 111.84 157.61"/><polygon class="cls-11" points="95.75 171.95 97.49 171.95 134.02 135.53 132.29 135.53 95.75 171.95"/><polygon class="cls-2" points="119.9 223.1 121.63 223.1 158.16 186.67 156.43 186.67 119.9 223.1"/><polygon class="cls-4" points="173.38 159.01 175.12 159.01 201.84 132.37 200.1 132.37 173.38 159.01"/><polygon class="cls-10" points="85.04 168.6 93.11 168.6 129.64 132.17 121.57 132.17 85.04 168.6"/><polygon class="cls-8" points="79.27 158.44 86.3 158.44 95.75 149.04 88.73 149.04 79.27 158.44"/><polygon class="cls-8" points="143.56 196.08 146.98 196.08 156.43 186.67 153.01 186.67 143.56 196.08"/><polygon class="cls-7" points="75.29 178.96 119.55 178.96 136.89 161.37 92.63 161.37 75.29 178.96"/></g></svg>