<?xml version="1.0" encoding="UTF-8"?><svg id="Layer_2" xmlns="http://www.w3.org/2000/svg" viewBox="0 0 336 224"><defs><style>.cls-1{fill:#fc0;}.cls-2{fill:#0067b2;}.cls-3{fill:#ef7d00;}.cls-4{fill:#83d0f5;}.cls-5{fill:#0055a4;}.cls-6{fill:#0086ce;}.cls-7{fill:#fcbd00;}.cls-8{fill:#f7a600;}.cls-9{fill:#1da0db;}.cls-10{fill:#009fe3;}.cls-11{fill:#6dc9f3;}</style></defs><g id="Layer_2-2"><polygon class="cls-9" points="336 224 336 0 66.39 0 290.39 224 336 224"/><polygon class="cls-5" points="66.39 0 0 0 0 224 290.39 224 66.39 0"/><polygon class="cls-2" points="210.78 189.22 195.31 189.22 137.75 131.92 153.22 131.92 210.78 189.22"/><polygon class="cls-6" points="241.16 183.31 233.6 183.31 181.99 131.93 189.55 131.93 241.16 183.31"/><polygon class="cls-1" points="244.17 196.79 236.61 196.79 179.05 139.49 186.61 139.49 244.17 196.79"/><polygon class="cls-3" points="233.31 196.79 225.75 196.79 168.19 139.49 175.74 139.49 233.31 196.79"/><polygon class="cls-3" points="226.57 220.34 219.01 220.34 161.45 163.04 169 163.04 226.57 220.34"/><polygon class="cls-8" points="205.33 176.46 202.53 176.46 169.45 143.53 172.24 143.53 205.33 176.46"/><polygon class="cls-3" points="233.89 210.5 232.16 210.5 174.6 153.2 176.33 153.2 233.89 210.5"/><polygon class="cls-1" points="228.31 209.65 221.29 209.65 211.84 200.24 218.86 200.24 228.31 209.65"/><polygon class="cls-1" points="205.17 193.15 203.43 193.15 159.18 149.1 160.92 149.1 205.17 193.15"/><polygon class="cls-1" points="229.57 169.26 227.04 169.26 193.5 135.87 196.03 135.87 229.57 169.26"/><polygon class="cls-3" points="224.16 157.61 221.63 157.61 199.45 135.53 201.98 135.53 224.16 157.61"/><polygon class="cls-11" points="240.25 171.95 238.51 171.95 201.98 135.53 203.71 135.53 240.25 171.95"/><polygon class="cls-2" points="216.1 223.1 214.37 223.1 177.84 186.67 179.57 186.67 216.1 223.1"/><polygon class="cls-4" points="162.62 159.01 160.88 159.01 134.16 132.37 135.9 132.37 162.62 159.01"/><polygon class="cls-10" points="250.96 168.6 242.89 168.6 206.36 132.17 214.43 132.17 250.96 168.6"/><polygon class="cls-8" points="246.39 168.6 239.36 168.6 229.91 159.19 236.94 159.19 246.39 168.6"/><polygon class="cls-8" points="192.44 196.08 189.02 196.08 179.57 186.67 182.99 186.67 192.44 196.08"/><polygon class="cls-7" points="213.46 178.96 169.2 178.96 151.86 161.37 196.12 161.37 213.46 178.96"/></g></svg>