<?xml version="1.0" encoding="UTF-8"?><svg id="Layer_1" xmlns="http://www.w3.org/2000/svg" viewBox="0 0 336 224.94"><defs><style>.cls-1{fill:#2b2b2b;}.cls-2{fill:#238dcd;}.cls-3{fill:#2f65af;}.cls-4{fill:#65bea8;}.cls-5{fill:#e6377c;}.cls-6{fill:#df9b00;}.cls-7{fill:#ec0;}.cls-8{fill:#3051a0;}.cls-9{fill:#187372;}.cls-10{fill:#8fbd22;}.cls-11{fill:#e2c405;}.cls-12{fill:#5d4998;}.cls-13{fill:#d91531;}.cls-14{fill:#00996e;}.cls-15{fill:#046d91;}.cls-16{fill:#9f7db7;}.cls-17{fill:#f07e16;}.cls-18{fill:#c9bb06;}.cls-19{fill:#b2b2b2;}</style></defs><rect class="cls-1" x="0" y="0" width="336" height="224" transform="translate(336 224) rotate(-180)"/><polygon class="cls-15" points="263.73 211.58 332.23 211.58 312.5 192.88 244 192.88 263.73 211.58"/><polygon class="cls-12" points="268.56 192.88 312.51 192.88 302.19 182.18 258.25 182.18 268.56 192.88"/><polygon class="cls-16" points="225.95 182.18 258.43 182.18 268.56 192.88 236.09 192.88 225.95 182.18"/><polygon class="cls-17" points="220.47 162.46 262.55 162.46 274.28 173.9 232.2 173.9 220.47 162.46"/><polygon class="cls-11" points="234.55 152.93 262.86 152.93 272.7 162.46 244.39 162.46 234.55 152.93"/><polygon class="cls-8" points="316.85 211.58 235.35 211.58 248.4 224.94 329.89 224.94 316.85 211.58"/><polygon class="cls-2" points="198.49 212.34 236.38 212.34 246.91 223.41 209.01 223.41 198.49 212.34"/><polygon class="cls-5" points="95.05 156.45 150.48 156.45 166.23 172.31 110.8 172.31 95.05 156.45"/><polygon class="cls-13" points="124.8 145.89 158.52 145.89 167.69 156.45 133.97 156.45 124.8 145.89"/><polygon class="cls-3" points="39.76 145.97 84.78 145.97 95.05 156.45 50.03 156.45 39.76 145.97"/><polygon class="cls-3" points="7.61 129.83 34.95 129.83 42.69 137.02 15.34 137.02 7.61 129.83"/><polygon class="cls-10" points="58.04 197.61 114.15 197.61 126.47 209.48 70.36 209.48 58.04 197.61"/><polygon class="cls-18" points="101.31 185.08 69.64 185.08 82.5 197.61 114.18 197.61 101.31 185.08"/><polygon class="cls-6" points="45.8 185.08 70.27 185.08 82.5 197.61 58.04 197.61 45.8 185.08"/><polygon class="cls-14" points="112.32 209.48 47.61 209.48 57.97 220.08 122.68 220.08 112.32 209.48"/><polygon class="cls-9" points="85.89 31.17 53.93 31.17 63.15 41.08 95.11 41.08 85.89 31.17"/><polygon class="cls-4" points="28.41 31.17 55.53 31.17 64.89 41.08 37.77 41.08 28.41 31.17"/><polygon class="cls-7" points="44.75 19.65 7.61 19.65 18.32 31.17 55.46 31.17 44.75 19.65"/><path class="cls-19" d="M45.8,156.45h-14.32s-29.83-.64-29.69-17.95v-2.93s6.49,16.72,29.74,16.72h7.34s3.74-.39,6.93,4.17Z"/><path class="cls-19" d="M9.18,9.35h302.4s17.17,0,17.17,13.08c0,0-5.35-8.25-16.93-8.25-11.58,0-302.63.48-302.63.48,0,0-8.66.14-8.66-5.3h8.66Z"/></svg>