<?xml version="1.0" encoding="UTF-8"?><svg id="Layer_1" xmlns="http://www.w3.org/2000/svg" viewBox="0 0 336 224.94"><defs><style>.cls-1{fill:#2b2b2b;}.cls-2{fill:#238dcd;}.cls-3{fill:#2f65af;}.cls-4{fill:#65bea8;}.cls-5{fill:#e6377c;}.cls-6{fill:#df9b00;}.cls-7{fill:#ec0;}.cls-8{fill:#3051a0;}.cls-9{fill:#187372;}.cls-10{fill:#8fbd22;}.cls-11{fill:#e2c405;}.cls-12{fill:#5d4998;}.cls-13{fill:#d91531;}.cls-14{fill:#00996e;}.cls-15{fill:#046d91;}.cls-16{fill:#9f7db7;}.cls-17{fill:#f07e16;}.cls-18{fill:#c9bb06;}.cls-19{fill:#b2b2b2;}</style></defs><rect class="cls-1" width="336" height="224"/><polygon class="cls-15" points="51.22 216.36 7.25 216.36 19.92 204.36 63.88 204.36 51.22 216.36"/><polygon class="cls-12" points="48.12 204.36 19.91 204.36 26.53 197.49 54.74 197.49 48.12 204.36"/><polygon class="cls-16" points="75.47 197.49 54.62 197.49 48.12 204.36 68.96 204.36 75.47 197.49"/><polygon class="cls-17" points="78.99 184.83 51.98 184.83 44.45 192.18 71.46 192.18 78.99 184.83"/><polygon class="cls-11" points="69.95 178.72 51.78 178.72 45.46 184.83 63.63 184.83 69.95 178.72"/><polygon class="cls-8" points="17.13 216.36 69.44 216.36 61.06 224.94 8.75 224.94 17.13 216.36"/><polygon class="cls-2" points="93.1 216.85 68.77 216.85 62.02 223.96 86.34 223.96 93.1 216.85"/><polygon class="cls-5" points="216.12 180.98 180.55 180.98 170.44 191.16 206.01 191.16 216.12 180.98"/><polygon class="cls-13" points="197.03 174.2 175.38 174.2 169.5 180.98 191.14 180.98 197.03 174.2"/><polygon class="cls-3" points="251.62 174.25 222.72 174.25 216.12 180.98 245.03 180.98 251.62 174.25"/><polygon class="cls-3" points="279.68 163.89 262.13 163.89 257.17 168.5 274.72 168.5 279.68 163.89"/><polygon class="cls-10" points="239.88 207.4 203.87 207.4 195.96 215.01 231.97 215.01 239.88 207.4"/><polygon class="cls-18" points="212.11 199.35 232.44 199.35 224.18 207.4 203.85 207.4 212.11 199.35"/><polygon class="cls-6" points="247.74 199.35 232.03 199.35 224.18 207.4 239.88 207.4 247.74 199.35"/><polygon class="cls-14" points="205.04 215.01 246.58 215.01 239.93 221.82 198.39 221.82 205.04 215.01"/><polygon class="cls-9" points="275.55 27.2 296.48 27.2 290.44 33.69 269.51 33.69 275.55 27.2"/><polygon class="cls-4" points="313.19 27.2 295.43 27.2 289.31 33.69 307.07 33.69 313.19 27.2"/><polygon class="cls-7" points="302.49 19.65 326.82 19.65 319.8 27.2 295.48 27.2 302.49 19.65"/><path class="cls-19" d="M247.74,180.98h44.16s33.21-.63,44.1-11.52v-1.88s-16.31,10.73-44.13,10.73h-39.69s-2.4-.25-4.45,2.67Z"/><path class="cls-19" d="M326.82,9.35H24.42s-17.17,0-17.17,13.08c0,0,5.35-8.25,16.93-8.25s302.63.48,302.63.48c0,0,8.66.14,8.66-5.3h-8.66Z"/></svg>