<?xml version="1.0" encoding="UTF-8"?><svg id="Layer_2" xmlns="http://www.w3.org/2000/svg" viewBox="0 0 336 224"><defs><style>.cls-1{fill:#0090d5;}.cls-2{fill:#79bfd8;}.cls-3{fill:#0154a3;}.cls-4{fill:#002161;}.cls-5{fill:#25b1da;}</style></defs><g id="Layer_1-2"><rect class="cls-3" x="0" y="0" width="336" height="224" transform="translate(336 224) rotate(-180)"/><polygon class="cls-1" points="53.1 158.94 102.72 158.94 117.01 172.49 67.39 172.49 53.1 158.94"/><polygon class="cls-5" points="63.42 151.19 95.25 151.19 102.73 158.94 70.89 158.94 63.42 151.19"/><polygon class="cls-2" points="47.37 158.94 70.89 158.94 63.55 151.19 40.02 151.19 47.37 158.94"/><polygon class="cls-1" points="29.59 145.19 60.07 145.19 51.57 136.91 21.09 136.91 29.59 145.19"/><polygon class="cls-4" points="42.91 136.91 63.42 136.91 56.29 130 35.79 130 42.91 136.91"/><polygon class="cls-4" points="115.32 182.17 56.29 182.17 46.83 172.49 105.87 172.49 115.32 182.17"/><polygon class="cls-5" points="31.61 178.77 53.1 178.77 47.13 172.49 25.64 172.49 31.61 178.77"/><polygon class="cls-1" points="254.45 140.98 272.98 140.98 307.82 175.96 289.29 175.96 254.45 140.98"/><polygon class="cls-4" points="273.9 167.71 292.36 167.71 286.32 161.5 267.86 161.5 273.9 167.71"/><polygon class="cls-5" points="278.72 146.84 289.02 146.84 283.13 140.98 272.83 140.98 278.72 146.84"/><polygon class="cls-1" points="242.99 130.27 261.45 130.27 255.41 124.06 236.95 124.06 242.99 130.27"/><polygon class="cls-4" points="267.27 136.49 285.73 136.49 279.69 130.27 261.23 130.27 267.27 136.49"/><polygon class="cls-5" points="120.6 192.86 291.26 192.86 293.45 194.85 122.78 194.85 120.6 192.86"/><polygon class="cls-5" points="61.1 192.86 120.74 192.86 122.93 194.85 63.29 194.85 61.1 192.86"/><polygon class="cls-5" points="295.98 171.28 303.2 171.28 293.47 161.52 285.79 161.52 295.98 171.28"/><polygon class="cls-2" points="303.2 171.28 319.99 171.28 309.8 161.52 293.47 161.52 303.2 171.28"/></g></svg>