<?xml version="1.0" encoding="UTF-8"?><svg id="Layer_2" xmlns="http://www.w3.org/2000/svg" xmlns:xlink="http://www.w3.org/1999/xlink" viewBox="0 0 336.28 224.19"><defs><style>.cls-1{fill:url(#linear-gradient-3);}.cls-2{fill:url(#linear-gradient-2);}.cls-3{fill:url(#linear-gradient);}.cls-4{fill:#003473;}.cls-5{fill:#fff;}</style><linearGradient id="linear-gradient" x1=".23" y1="177.46" x2="336.28" y2="177.46" gradientUnits="userSpaceOnUse"><stop offset="0" stop-color="#de0277" stop-opacity="0"/><stop offset=".03" stop-color="#de0177" stop-opacity=".12"/><stop offset=".07" stop-color="#df0177" stop-opacity=".31"/><stop offset=".12" stop-color="#df0177" stop-opacity=".47"/><stop offset=".18" stop-color="#e00177" stop-opacity=".62"/><stop offset=".24" stop-color="#e00177" stop-opacity=".74"/><stop offset=".3" stop-color="#e10177" stop-opacity=".83"/><stop offset=".38" stop-color="#e10177" stop-opacity=".91"/><stop offset=".48" stop-color="#e10177" stop-opacity=".96"/><stop offset=".62" stop-color="#e10177" stop-opacity=".99"/><stop offset="1" stop-color="#e20177"/></linearGradient><linearGradient id="linear-gradient-2" x1="-.05" y1="187.68" x2="122.3" y2="187.68" gradientTransform="translate(.11 3.74)" gradientUnits="userSpaceOnUse"><stop offset="0" stop-color="#fff" stop-opacity="0"/><stop offset="0" stop-color="#fff" stop-opacity=".04"/><stop offset=".05" stop-color="#fff" stop-opacity=".22"/><stop offset=".09" stop-color="#fff" stop-opacity=".39"/><stop offset=".14" stop-color="#fff" stop-opacity=".53"/><stop offset=".2" stop-color="#fff" stop-opacity=".66"/><stop offset=".25" stop-color="#fff" stop-opacity=".77"/><stop offset=".32" stop-color="#fff" stop-opacity=".85"/><stop offset=".4" stop-color="#fff" stop-opacity=".92"/><stop offset=".49" stop-color="#fff" stop-opacity=".97"/><stop offset=".63" stop-color="#fff" stop-opacity=".99"/><stop offset="1" stop-color="#fff"/></linearGradient><linearGradient id="linear-gradient-3" x1="0" y1="192.66" x2="122.35" y2="192.66" gradientTransform="translate(0 -6.21)" xlink:href="#linear-gradient"/></defs><g id="Layer_1-2"><rect class="cls-5" x="0" width="336" height="224"/><rect class="cls-4" x=".29" y="198.2" width="335.99" height="25.99"/><path class="cls-4" d="M.23,35.39h107.21l128.19,154.16s8.61,10.07,35.44,11.48L.23,207.81V35.39Z"/><path class="cls-3" d="M.23,145.32v13.08h99.72s23.86-1.84,44.89,19.2,43.76,33.88,80.19,33.88h111.25l-.05-10.94-100.75-4.78-20.05-5.74-22.59-16.94-22.02-17.51-34.16-9.32-23.15-2.82L.23,145.32Z"/><path class="cls-5" d="M.23,141.55h101.23s60.33-1.93,86.87,24.85c20.99,21.18,42.92,29.36,63.67,29.36h84.24v4.78h-84.19s-34.64,2.85-66.07-31.22c0,0-21.65-24-84.33-24H.23v-3.76Z"/><rect class="cls-2" x=".05" y="189.55" width="122.35" height="3.74" transform="translate(122.46 382.85) rotate(180)"/><rect class="cls-1" y="183.34" width="122.35" height="6.21" transform="translate(122.35 372.89) rotate(180)"/></g></svg>