<?xml version="1.0" encoding="UTF-8"?><svg id="Layer_2" xmlns="http://www.w3.org/2000/svg" xmlns:xlink="http://www.w3.org/1999/xlink" viewBox="0 0 336.1 224"><defs><style>.cls-1{fill:url(#linear-gradient);}.cls-2{fill:#fff954;}</style><linearGradient id="linear-gradient" x1="2.7" y1="223.6" x2="6.98" y2="223.6" gradientTransform="translate(276.36 5473.26) rotate(-180) scale(41.31 24.29)" gradientUnits="userSpaceOnUse"><stop offset=".02" stop-color="#fff954"/><stop offset=".27" stop-color="#f0f0f0"/><stop offset=".32" stop-color="#bdbdbd"/><stop offset=".38" stop-color="#919191"/><stop offset=".44" stop-color="#6a6a6a"/><stop offset=".51" stop-color="#494949"/><stop offset=".58" stop-color="#2e2e2e"/><stop offset=".65" stop-color="#191919"/><stop offset=".74" stop-color="#0b0b0b"/><stop offset=".84" stop-color="#020202"/><stop offset="1" stop-color="#000"/></linearGradient></defs><g id="Layer_1-2"><rect class="cls-2" x="0" y="0" width="336" height="224" transform="translate(336 224) rotate(-180)"/><path class="cls-1" d="M71.25,0c-1.15,2.43-2.54,4.74-4.16,6.89,5.84-.57,11.7-.84,17.56-.81,8.3.23,16.56,1.09,24.73,2.57,5.56,1.14,11,2.81,16.24,4.98l-18.48,1.53s10.37,1.78,13.77,2.7c3.4.92,12.84,3.61,18.44,5.81,4.48,1.84,8.83,4,13.01,6.46l24.62,3.59s-9.18-4.26-19.92-8.06c-10.75-3.8-31.11-9.18-31.11-9.18l17.38-1.12s-10.7-3.62-17.74-5.43c-9.76-2.79-19.72-4.84-29.79-6.11-17.54-2.48-22.07-1.11-22.07-1.11.91-.81,1.71-1.73,2.38-2.73M51.5,0c-1.13,1.76-2.12,3.61-2.97,5.53l-8.24,6.09c-1.79,1.2-3.42,2.63-4.84,4.25-1.62,2.25-6.06,10.15-9.94,11.63C21.59,28.98.05,36.87.05,36.87c.87,3.84,2.8,7.36,5.57,10.15,5.34,6.46,16.96,4.25,28.12,3.51s28.7-4.4,36.51,1.13c7.8,5.52,1.28,20.25,1.28,20.25,3.53-3.55,6.22-7.84,7.88-12.56,1.46-6.09.12-13.92-13.45-15.79-13.57-1.87-24.96,3.24-35.87,4.15-18.08,1.57-20.41-3.43-20.41-3.43.96-.71,1.8-1.58,2.47-2.57.92-1.22,1.29-2.78,1.02-4.28,0,0,32.44-9.77,44.07-11.99,11.63-2.22,22.52-4.56,33.7-2.31,10.29,1.91,18.33,9.96,20.25,20.25,1.47,8.29-4,18.06-14.13,25.8-9.44,7.29-30.79,13.31-30.79,13.31,4.22-.52,8.42-1.25,12.57-2.2,9.01-1.94,17.56-5.6,25.18-10.77,8.73-6.61,16.39-17.7,14.82-27.25-1.46-8.89-4.91-15.63-19.15-21.65-8.78-3.55-18.17-5.34-27.64-5.24,0,0-9.2-1.12-10.28-9.03-.35-2.14-.17-4.32.49-6.34M37.43,24.11l2.18-6.47,20-4.28-22.18,10.75Z"/><path d="M336.1,33.73h-159.12s-9.18-4.26-19.92-8.06c-10.75-3.8-31.11-9.18-31.11-9.18l17.38-1.12s-10.7-3.62-17.74-5.43c-9.76-2.79-19.72-4.84-29.79-6.11-17.54-2.48-22.07-1.11-22.07-1.11.9-.8,1.71-1.74,2.38-2.73h259.88s.1,33.73.1,33.73Z"/></g></svg>