<?xml version="1.0" encoding="UTF-8"?><svg id="Layer_2" xmlns="http://www.w3.org/2000/svg" xmlns:xlink="http://www.w3.org/1999/xlink" viewBox="0 0 336.1 224"><defs><style>.cls-1{fill:url(#linear-gradient);}.cls-2{fill:#fff954;}</style><linearGradient id="linear-gradient" x1="2.7" y1="223.6" x2="6.98" y2="223.6" gradientTransform="translate(59.74 5473.26) scale(41.31 -24.29)" gradientUnits="userSpaceOnUse"><stop offset=".02" stop-color="#fff954"/><stop offset=".27" stop-color="#f0f0f0"/><stop offset=".32" stop-color="#bdbdbd"/><stop offset=".38" stop-color="#919191"/><stop offset=".44" stop-color="#6a6a6a"/><stop offset=".51" stop-color="#494949"/><stop offset=".58" stop-color="#2e2e2e"/><stop offset=".65" stop-color="#191919"/><stop offset=".74" stop-color="#0b0b0b"/><stop offset=".84" stop-color="#020202"/><stop offset="1" stop-color="#000"/></linearGradient></defs><g id="Layer_1-2"><rect class="cls-2" x=".1" y="0" width="336" height="224"/><path class="cls-1" d="M259.98,0c.67,1,1.47,1.92,2.38,2.73,0,0-4.52-1.37-22.07,1.11-10.07,1.27-20.03,3.31-29.79,6.11-7.04,1.81-17.74,5.43-17.74,5.43l17.38,1.12s-20.36,5.38-31.11,9.18c-10.75,3.8-19.92,8.06-19.92,8.06l24.62-3.59c4.18-2.46,8.52-4.62,13.01-6.46,5.6-2.19,15.05-4.89,18.44-5.81,3.4-.92,13.77-2.7,13.77-2.7l-18.48-1.53c5.24-2.17,10.68-3.84,16.24-4.98,8.17-1.48,16.43-2.34,24.73-2.57,5.86-.03,11.72.24,17.56.81-1.62-2.15-3.02-4.46-4.16-6.89M273.86,0c.67,2.02.85,4.2.49,6.34-1.08,7.91-10.28,9.03-10.28,9.03-9.47-.1-18.86,1.68-27.64,5.24-14.24,6.02-17.68,12.76-19.15,21.65-1.57,9.56,6.09,20.64,14.82,27.25,7.62,5.17,16.17,8.83,25.18,10.77,4.15.95,8.34,1.68,12.57,2.2,0,0-21.35-6.02-30.79-13.31-10.13-7.74-15.6-17.51-14.13-25.8,1.91-10.29,9.96-18.34,20.25-20.25,11.18-2.24,22.07.09,33.7,2.31,11.63,2.22,44.07,11.99,44.07,11.99-.28,1.51.09,3.06,1.02,4.28.67.99,1.5,1.86,2.47,2.57,0,0-2.33,5-20.41,3.43-10.91-.91-22.3-6.02-35.87-4.15-13.57,1.87-14.91,9.7-13.45,15.79,1.66,4.72,4.35,9.01,7.88,12.56,0,0-6.52-14.72,1.28-20.25,7.8-5.52,25.35-1.87,36.51-1.13s22.78,2.95,28.12-3.51c2.77-2.79,4.7-6.31,5.57-10.15,0,0-21.54-7.89-25.45-9.37-3.88-1.48-8.33-9.38-9.94-11.63-1.43-1.62-3.05-3.05-4.84-4.25l-8.24-6.09c-.85-1.92-1.85-3.77-2.97-5.53M276.49,13.36l20,4.28,2.18,6.47-22.18-10.75Z"/><path d="M.1,0h259.88c.67.99,1.48,1.93,2.38,2.73,0,0-4.52-1.37-22.07,1.11-10.07,1.27-20.03,3.31-29.79,6.11-7.04,1.81-17.74,5.43-17.74,5.43l17.38,1.12s-20.36,5.38-31.11,9.18c-10.75,3.8-19.92,8.06-19.92,8.06H0L.1,0Z"/></g></svg>